<svg width="685" height="165" viewBox="0 0 685 165" fill="none" xmlns="http://www.w3.org/2000/svg">
<g clip-path="url(#clip0_2509_57)">
<rect width="685" height="165" rx="30" fill="url(#paint0_linear_2509_57)"/>
<mask id="mask0_2509_57" style="mask-type:alpha" maskUnits="userSpaceOnUse" x="-230" y="-255" width="677" height="677">
<rect width="480" height="480" transform="translate(-230 55.6772) rotate(-40.3341)" fill="url(#paint1_radial_2509_57)"/>
</mask>
<g mask="url(#mask0_2509_57)">
<circle cx="108.286" cy="83.2865" r="47.5" transform="rotate(-40.3341 108.286 83.2865)" stroke="url(#paint2_linear_2509_57)"/>
<circle cx="108.287" cy="83.2865" r="79.5" transform="rotate(-40.3341 108.287 83.2865)" stroke="url(#paint3_linear_2509_57)"/>
<circle cx="108.286" cy="83.2865" r="111.5" transform="rotate(-40.3341 108.286 83.2865)" stroke="url(#paint4_linear_2509_57)"/>
<circle cx="108.287" cy="83.2865" r="143.5" transform="rotate(-40.3341 108.287 83.2865)" stroke="url(#paint5_linear_2509_57)"/>
<circle cx="108.287" cy="83.2865" r="143.5" transform="rotate(-40.3341 108.287 83.2865)" stroke="url(#paint6_linear_2509_57)"/>
<circle cx="108.286" cy="83.2865" r="175.5" transform="rotate(-40.3341 108.286 83.2865)" stroke="url(#paint7_linear_2509_57)"/>
<circle cx="108.287" cy="83.2865" r="207.5" transform="rotate(-40.3341 108.287 83.2865)" stroke="url(#paint8_linear_2509_57)"/>
<circle cx="108.286" cy="83.2865" r="239.5" transform="rotate(-40.3341 108.286 83.2865)" stroke="url(#paint9_linear_2509_57)"/>
</g>
<path d="M191.034 71.0045V36.0954H198.415V64.9193H213.381V71.0045H191.034ZM225.598 71.4988C223.928 71.4988 222.439 71.209 221.132 70.6295C219.825 70.0386 218.791 69.1693 218.03 68.0215C217.28 66.8625 216.905 65.4193 216.905 63.692C216.905 62.2375 217.172 61.0159 217.706 60.0272C218.24 59.0386 218.967 58.2431 219.888 57.6409C220.808 57.0386 221.854 56.5841 223.024 56.2772C224.206 55.9704 225.445 55.7545 226.74 55.6295C228.263 55.4704 229.49 55.3227 230.422 55.1863C231.354 55.0386 232.03 54.8227 232.45 54.5386C232.871 54.2545 233.081 53.8341 233.081 53.2772V53.175C233.081 52.0954 232.74 51.2602 232.058 50.6693C231.388 50.0784 230.433 49.7829 229.195 49.7829C227.888 49.7829 226.848 50.0727 226.075 50.6522C225.303 51.2204 224.791 51.9363 224.541 52.8L217.825 52.2545C218.166 50.6636 218.837 49.2886 219.837 48.1295C220.837 46.9591 222.126 46.0613 223.706 45.4363C225.297 44.8 227.138 44.4818 229.229 44.4818C230.683 44.4818 232.075 44.6522 233.405 44.9931C234.746 45.3341 235.933 45.8625 236.967 46.5784C238.013 47.2943 238.837 48.2147 239.439 49.3397C240.041 50.4534 240.342 51.7886 240.342 53.3454V71.0045H233.456V67.3738H233.251C232.831 68.192 232.268 68.9136 231.564 69.5386C230.859 70.1522 230.013 70.6352 229.024 70.9875C228.036 71.3284 226.893 71.4988 225.598 71.4988ZM227.678 66.4875C228.746 66.4875 229.689 66.2772 230.507 65.8568C231.325 65.425 231.967 64.8454 232.433 64.1181C232.899 63.3909 233.132 62.567 233.132 61.6466V58.8681C232.905 59.0159 232.592 59.1522 232.195 59.2772C231.808 59.3909 231.371 59.4988 230.882 59.6011C230.393 59.692 229.905 59.7772 229.416 59.8568C228.928 59.925 228.484 59.9875 228.087 60.0443C227.234 60.1693 226.49 60.3681 225.854 60.6409C225.217 60.9136 224.723 61.2829 224.371 61.7488C224.018 62.2034 223.842 62.7716 223.842 63.4534C223.842 64.442 224.2 65.1977 224.916 65.7204C225.643 66.2318 226.564 66.4875 227.678 66.4875ZM262.766 59.8568V44.8227H270.027V71.0045H263.055V66.2488H262.783C262.192 67.7829 261.209 69.0159 259.834 69.9477C258.47 70.8795 256.805 71.3454 254.839 71.3454C253.089 71.3454 251.55 70.9477 250.22 70.1522C248.891 69.3568 247.851 68.2261 247.101 66.7602C246.362 65.2943 245.987 63.5386 245.976 61.4931V44.8227H253.237V60.1977C253.249 61.7431 253.663 62.9647 254.482 63.8625C255.3 64.7602 256.396 65.209 257.771 65.209C258.646 65.209 259.464 65.0102 260.226 64.6125C260.987 64.2034 261.601 63.6011 262.067 62.8056C262.544 62.0102 262.777 61.0272 262.766 59.8568ZM283.097 55.8681V71.0045H275.835V44.8227H282.756V49.442H283.062C283.642 47.9193 284.614 46.7147 285.977 45.8284C287.341 44.9306 288.994 44.4818 290.937 44.4818C292.756 44.4818 294.341 44.8795 295.693 45.675C297.045 46.4704 298.097 47.6068 298.847 49.0841C299.597 50.55 299.972 52.3 299.972 54.3341V71.0045H292.71V55.6295C292.722 54.0272 292.312 52.7772 291.483 51.8795C290.653 50.9704 289.511 50.5159 288.057 50.5159C287.08 50.5159 286.216 50.7261 285.466 51.1466C284.727 51.567 284.148 52.1806 283.727 52.9875C283.318 53.7829 283.108 54.7431 283.097 55.8681ZM317.524 71.5159C314.842 71.5159 312.535 70.9477 310.604 69.8113C308.683 68.6636 307.206 67.0727 306.172 65.0386C305.149 63.0045 304.638 60.6636 304.638 58.0159C304.638 55.3341 305.155 52.9818 306.189 50.9591C307.234 48.925 308.717 47.3397 310.638 46.2034C312.558 45.0556 314.842 44.4818 317.49 44.4818C319.774 44.4818 321.774 44.8966 323.49 45.7261C325.206 46.5556 326.564 47.7204 327.564 49.2204C328.564 50.7204 329.115 52.4818 329.217 54.5045H322.365C322.172 53.1977 321.66 52.1466 320.831 51.3511C320.013 50.5443 318.939 50.1409 317.609 50.1409C316.484 50.1409 315.501 50.4477 314.66 51.0613C313.831 51.6636 313.183 52.5443 312.717 53.7034C312.251 54.8625 312.018 56.2659 312.018 57.9136C312.018 59.5841 312.246 61.0045 312.7 62.175C313.166 63.3454 313.82 64.2375 314.66 64.8511C315.501 65.4647 316.484 65.7715 317.609 65.7715C318.439 65.7715 319.183 65.6011 319.842 65.2602C320.513 64.9193 321.064 64.425 321.496 63.7772C321.939 63.1181 322.229 62.3284 322.365 61.4079H329.217C329.104 63.4079 328.558 65.1693 327.581 66.692C326.615 68.2034 325.28 69.3852 323.575 70.2375C321.871 71.0897 319.854 71.5159 317.524 71.5159ZM341.128 55.8681V71.0045H333.866V36.0954H340.923V49.442H341.23C341.821 47.8966 342.776 46.6863 344.094 45.8113C345.412 44.925 347.065 44.4818 349.054 44.4818C350.872 44.4818 352.457 44.8795 353.81 45.675C355.173 46.4591 356.23 47.5897 356.98 49.067C357.741 50.5329 358.116 52.2886 358.105 54.3341V71.0045H350.844V55.6295C350.855 54.0159 350.446 52.7602 349.616 51.8625C348.798 50.9647 347.651 50.5159 346.173 50.5159C345.185 50.5159 344.31 50.7261 343.548 51.1466C342.798 51.567 342.207 52.1806 341.776 52.9875C341.355 53.7829 341.139 54.7431 341.128 55.8681ZM363.82 80.8227V44.8227H370.979V49.2204H371.303C371.621 48.5159 372.081 47.8 372.683 47.0727C373.297 46.3341 374.092 45.7204 375.07 45.2318C376.058 44.7318 377.285 44.4818 378.751 44.4818C380.66 44.4818 382.422 44.9818 384.035 45.9818C385.649 46.9704 386.939 48.4647 387.905 50.4647C388.871 52.4534 389.354 54.9477 389.354 57.9477C389.354 60.8681 388.882 63.3341 387.939 65.3454C387.007 67.3454 385.734 68.8625 384.121 69.8965C382.518 70.9193 380.723 71.4306 378.734 71.4306C377.325 71.4306 376.126 71.1977 375.138 70.7318C374.16 70.2659 373.359 69.6806 372.734 68.9761C372.109 68.2602 371.632 67.5386 371.303 66.8113H371.081V80.8227H363.82ZM370.928 57.9136C370.928 59.4704 371.143 60.8284 371.575 61.9875C372.007 63.1466 372.632 64.05 373.45 64.6977C374.268 65.334 375.263 65.6522 376.433 65.6522C377.615 65.6522 378.615 65.3284 379.433 64.6806C380.251 64.0216 380.871 63.1125 381.291 61.9534C381.723 60.7829 381.939 59.4363 381.939 57.9136C381.939 56.4022 381.729 55.0727 381.308 53.925C380.888 52.7772 380.268 51.8795 379.45 51.2318C378.632 50.5841 377.626 50.2602 376.433 50.2602C375.251 50.2602 374.251 50.5727 373.433 51.1977C372.626 51.8227 372.007 52.7091 371.575 53.8568C371.143 55.0045 370.928 56.3568 370.928 57.9136ZM401.66 71.4988C399.99 71.4988 398.501 71.209 397.195 70.6295C395.888 70.0386 394.854 69.1693 394.092 68.0215C393.342 66.8625 392.967 65.4193 392.967 63.692C392.967 62.2375 393.234 61.0159 393.768 60.0272C394.302 59.0386 395.03 58.2431 395.95 57.6409C396.871 57.0386 397.916 56.5841 399.087 56.2772C400.268 55.9704 401.507 55.7545 402.802 55.6295C404.325 55.4704 405.552 55.3227 406.484 55.1863C407.416 55.0386 408.092 54.8227 408.513 54.5386C408.933 54.2545 409.143 53.8341 409.143 53.2772V53.175C409.143 52.0954 408.802 51.2602 408.121 50.6693C407.45 50.0784 406.496 49.7829 405.257 49.7829C403.95 49.7829 402.91 50.0727 402.138 50.6522C401.365 51.2204 400.854 51.9363 400.604 52.8L393.888 52.2545C394.229 50.6636 394.899 49.2886 395.899 48.1295C396.899 46.9591 398.189 46.0613 399.768 45.4363C401.359 44.8 403.2 44.4818 405.291 44.4818C406.746 44.4818 408.138 44.6522 409.467 44.9931C410.808 45.3341 411.996 45.8625 413.03 46.5784C414.075 47.2943 414.899 48.2147 415.501 49.3397C416.104 50.4534 416.405 51.7886 416.405 53.3454V71.0045H409.518V67.3738H409.314C408.893 68.192 408.331 68.9136 407.626 69.5386C406.922 70.1522 406.075 70.6352 405.087 70.9875C404.098 71.3284 402.956 71.4988 401.66 71.4988ZM403.74 66.4875C404.808 66.4875 405.751 66.2772 406.57 65.8568C407.388 65.425 408.03 64.8454 408.496 64.1181C408.962 63.3909 409.195 62.567 409.195 61.6466V58.8681C408.967 59.0159 408.655 59.1522 408.257 59.2772C407.871 59.3909 407.433 59.4988 406.945 59.6011C406.456 59.692 405.967 59.7772 405.479 59.8568C404.99 59.925 404.547 59.9875 404.149 60.0443C403.297 60.1693 402.552 60.3681 401.916 60.6409C401.28 60.9136 400.785 61.2829 400.433 61.7488C400.081 62.2034 399.905 62.7716 399.905 63.4534C399.905 64.442 400.263 65.1977 400.979 65.7204C401.706 66.2318 402.626 66.4875 403.74 66.4875ZM431.686 71.4306C429.697 71.4306 427.896 70.9193 426.283 69.8965C424.68 68.8625 423.408 67.3454 422.464 65.3454C421.533 63.3341 421.067 60.8681 421.067 57.9477C421.067 54.9477 421.55 52.4534 422.516 50.4647C423.481 48.4647 424.766 46.9704 426.368 45.9818C427.981 44.9818 429.749 44.4818 431.669 44.4818C433.135 44.4818 434.356 44.7318 435.334 45.2318C436.322 45.7204 437.118 46.3341 437.72 47.0727C438.334 47.8 438.8 48.5159 439.118 49.2204H439.339V36.0954H446.584V71.0045H439.425V66.8113H439.118C438.777 67.5386 438.294 68.2602 437.669 68.9761C437.055 69.6806 436.254 70.2659 435.266 70.7318C434.288 71.1977 433.095 71.4306 431.686 71.4306ZM433.987 65.6522C435.158 65.6522 436.146 65.334 436.953 64.6977C437.771 64.05 438.396 63.1466 438.828 61.9875C439.271 60.8284 439.493 59.4704 439.493 57.9136C439.493 56.3568 439.277 55.0045 438.845 53.8568C438.413 52.7091 437.788 51.8227 436.97 51.1977C436.152 50.5727 435.158 50.2602 433.987 50.2602C432.794 50.2602 431.788 50.5841 430.97 51.2318C430.152 51.8795 429.533 52.7772 429.112 53.925C428.692 55.0727 428.481 56.4022 428.481 57.9136C428.481 59.4363 428.692 60.7829 429.112 61.9534C429.544 63.1125 430.163 64.0216 430.97 64.6806C431.788 65.3284 432.794 65.6522 433.987 65.6522Z" fill="url(#paint10_linear_2509_57)"/>
<path d="M189.937 107.004V91.0045H195.531C196.646 91.0045 197.565 91.1972 198.289 91.5826C199.013 91.9628 199.552 92.4758 199.906 93.1217C200.26 93.7623 200.437 94.4732 200.437 95.2545C200.437 95.942 200.315 96.5097 200.07 96.9576C199.831 97.4055 199.513 97.7597 199.117 98.0201C198.727 98.2805 198.302 98.4732 197.844 98.5982V98.7545C198.333 98.7857 198.826 98.9576 199.32 99.2701C199.815 99.5826 200.229 100.031 200.562 100.614C200.896 101.197 201.062 101.911 201.062 102.754C201.062 103.557 200.88 104.278 200.516 104.919C200.151 105.559 199.576 106.067 198.789 106.442C198.003 106.817 196.979 107.004 195.719 107.004H189.937ZM191.875 105.286H195.719C196.984 105.286 197.883 105.041 198.414 104.551C198.951 104.057 199.219 103.458 199.219 102.754C199.219 102.213 199.081 101.713 198.805 101.254C198.529 100.791 198.135 100.421 197.625 100.145C197.115 99.8639 196.51 99.7232 195.812 99.7232H191.875V105.286ZM191.875 98.0357H195.469C196.052 98.0357 196.578 97.9212 197.047 97.692C197.521 97.4628 197.896 97.1399 198.172 96.7232C198.453 96.3066 198.594 95.817 198.594 95.2545C198.594 94.5514 198.349 93.955 197.859 93.4654C197.37 92.9706 196.594 92.7232 195.531 92.7232H191.875V98.0357ZM203.996 107.004V95.0045H205.777V96.817H205.902C206.121 96.2232 206.517 95.7415 207.09 95.3717C207.663 95.0019 208.309 94.817 209.027 94.817C209.163 94.817 209.332 94.8196 209.535 94.8248C209.738 94.83 209.892 94.8378 209.996 94.8482V96.7232C209.934 96.7076 209.79 96.6842 209.566 96.6529C209.348 96.6165 209.116 96.5982 208.871 96.5982C208.288 96.5982 207.767 96.7206 207.309 96.9654C206.855 97.205 206.496 97.5383 206.23 97.9654C205.97 98.3873 205.84 98.8691 205.84 99.4107V107.004H203.996ZM212.182 107.004V95.0045H214.025V107.004H212.182ZM213.119 93.0045C212.76 93.0045 212.45 92.8821 212.189 92.6373C211.934 92.3925 211.807 92.0982 211.807 91.7545C211.807 91.4107 211.934 91.1165 212.189 90.8717C212.45 90.6269 212.76 90.5045 213.119 90.5045C213.479 90.5045 213.786 90.6269 214.041 90.8717C214.301 91.1165 214.432 91.4107 214.432 91.7545C214.432 92.0982 214.301 92.3925 214.041 92.6373C213.786 92.8821 213.479 93.0045 213.119 93.0045ZM219.246 99.7857V107.004H217.402V95.0045H219.184V96.8795H219.34C219.621 96.2701 220.048 95.7805 220.621 95.4107C221.194 95.0357 221.934 94.8482 222.84 94.8482C223.652 94.8482 224.363 95.0149 224.973 95.3482C225.582 95.6764 226.056 96.1764 226.395 96.8482C226.733 97.5149 226.902 98.3587 226.902 99.3795V107.004H225.059V99.5045C225.059 98.5618 224.814 97.8274 224.324 97.3014C223.835 96.7701 223.163 96.5045 222.309 96.5045C221.72 96.5045 221.194 96.6321 220.73 96.8873C220.272 97.1425 219.91 97.5149 219.645 98.0045C219.379 98.4941 219.246 99.0878 219.246 99.7857ZM235.115 111.754C234.225 111.754 233.459 111.64 232.818 111.411C232.178 111.187 231.644 110.89 231.217 110.52C230.795 110.156 230.459 109.765 230.209 109.348L231.678 108.317C231.844 108.536 232.055 108.786 232.311 109.067C232.566 109.353 232.915 109.601 233.357 109.809C233.805 110.023 234.391 110.129 235.115 110.129C236.084 110.129 236.883 109.895 237.514 109.426C238.144 108.958 238.459 108.223 238.459 107.223V104.786H238.303C238.167 105.004 237.975 105.275 237.725 105.598C237.48 105.916 237.126 106.2 236.662 106.45C236.204 106.695 235.584 106.817 234.803 106.817C233.834 106.817 232.964 106.588 232.193 106.129C231.428 105.671 230.821 105.004 230.373 104.129C229.93 103.254 229.709 102.192 229.709 100.942C229.709 99.7128 229.925 98.6425 230.357 97.7311C230.79 96.8144 231.391 96.1061 232.162 95.6061C232.933 95.1008 233.824 94.8482 234.834 94.8482C235.615 94.8482 236.235 94.9785 236.693 95.2389C237.157 95.4941 237.511 95.7857 237.756 96.1139C238.006 96.4368 238.199 96.7024 238.334 96.9107H238.521V95.0045H240.303V107.348C240.303 108.379 240.068 109.218 239.6 109.864C239.136 110.515 238.511 110.991 237.725 111.294C236.943 111.601 236.074 111.754 235.115 111.754ZM235.053 105.161C235.792 105.161 236.417 104.991 236.928 104.653C237.438 104.314 237.826 103.827 238.092 103.192C238.357 102.557 238.49 101.796 238.49 100.911C238.49 100.046 238.36 99.2831 238.1 98.6217C237.839 97.9602 237.454 97.442 236.943 97.067C236.433 96.692 235.803 96.5045 235.053 96.5045C234.271 96.5045 233.62 96.7024 233.1 97.0982C232.584 97.4941 232.196 98.0253 231.936 98.692C231.68 99.3587 231.553 100.098 231.553 100.911C231.553 101.744 231.683 102.481 231.943 103.122C232.209 103.757 232.6 104.257 233.115 104.622C233.636 104.981 234.282 105.161 235.053 105.161ZM251.053 111.504C250.74 111.504 250.462 111.478 250.217 111.426C249.972 111.379 249.803 111.333 249.709 111.286L250.178 109.661C250.626 109.775 251.021 109.817 251.365 109.786C251.709 109.754 252.014 109.601 252.279 109.325C252.55 109.054 252.798 108.614 253.021 108.004L253.365 107.067L248.928 95.0045H250.928L254.24 104.567H254.365L257.678 95.0045H259.678L254.584 108.754C254.355 109.374 254.071 109.887 253.732 110.294C253.394 110.705 253.001 111.01 252.553 111.208C252.11 111.406 251.61 111.504 251.053 111.504ZM266.557 107.254C265.473 107.254 264.523 106.997 263.705 106.481C262.893 105.965 262.257 105.244 261.799 104.317C261.346 103.39 261.119 102.307 261.119 101.067C261.119 99.817 261.346 98.7258 261.799 97.7936C262.257 96.8613 262.893 96.1373 263.705 95.6217C264.523 95.1061 265.473 94.8482 266.557 94.8482C267.64 94.8482 268.588 95.1061 269.4 95.6217C270.218 96.1373 270.853 96.8613 271.307 97.7936C271.765 98.7258 271.994 99.817 271.994 101.067C271.994 102.307 271.765 103.39 271.307 104.317C270.853 105.244 270.218 105.965 269.4 106.481C268.588 106.997 267.64 107.254 266.557 107.254ZM266.557 105.598C267.38 105.598 268.057 105.387 268.588 104.965C269.119 104.544 269.512 103.989 269.768 103.301C270.023 102.614 270.15 101.869 270.15 101.067C270.15 100.265 270.023 99.5175 269.768 98.8248C269.512 98.1321 269.119 97.5722 268.588 97.1451C268.057 96.718 267.38 96.5045 266.557 96.5045C265.734 96.5045 265.057 96.718 264.525 97.1451C263.994 97.5722 263.601 98.1321 263.346 98.8248C263.09 99.5175 262.963 100.265 262.963 101.067C262.963 101.869 263.09 102.614 263.346 103.301C263.601 103.989 263.994 104.544 264.525 104.965C265.057 105.387 265.734 105.598 266.557 105.598ZM282.371 102.098V95.0045H284.215V107.004H282.371V104.973H282.246C281.965 105.583 281.527 106.101 280.934 106.528C280.34 106.95 279.59 107.161 278.684 107.161C277.934 107.161 277.267 106.997 276.684 106.669C276.1 106.335 275.642 105.835 275.309 105.169C274.975 104.497 274.809 103.65 274.809 102.629V95.0045H276.652V102.504C276.652 103.379 276.897 104.077 277.387 104.598C277.881 105.119 278.512 105.379 279.277 105.379C279.736 105.379 280.202 105.262 280.676 105.028C281.155 104.794 281.556 104.434 281.879 103.95C282.207 103.465 282.371 102.848 282.371 102.098ZM287.592 107.004V95.0045H289.373V96.817H289.498C289.717 96.2232 290.113 95.7415 290.686 95.3717C291.258 95.0019 291.904 94.817 292.623 94.817C292.758 94.817 292.928 94.8196 293.131 94.8248C293.334 94.83 293.488 94.8378 293.592 94.8482V96.7232C293.529 96.7076 293.386 96.6842 293.162 96.6529C292.943 96.6165 292.712 96.5982 292.467 96.5982C291.883 96.5982 291.363 96.7206 290.904 96.9654C290.451 97.205 290.092 97.5383 289.826 97.9654C289.566 98.3873 289.436 98.8691 289.436 99.4107V107.004H287.592ZM301.668 107.004V91.0045H312.262V93.7936H305.051V97.6061H311.559V100.395H305.051V107.004H301.668ZM317.746 107.231C316.98 107.231 316.298 107.098 315.699 106.833C315.1 106.562 314.626 106.163 314.277 105.637C313.934 105.106 313.762 104.445 313.762 103.653C313.762 102.986 313.884 102.426 314.129 101.973C314.374 101.52 314.707 101.156 315.129 100.879C315.551 100.603 316.03 100.395 316.566 100.254C317.108 100.114 317.676 100.015 318.269 99.9576C318.967 99.8847 319.53 99.817 319.957 99.7545C320.384 99.6868 320.694 99.5878 320.887 99.4576C321.079 99.3274 321.176 99.1347 321.176 98.8795V98.8326C321.176 98.3378 321.019 97.955 320.707 97.6842C320.4 97.4133 319.962 97.2779 319.394 97.2779C318.796 97.2779 318.319 97.4107 317.965 97.6764C317.611 97.9368 317.376 98.2649 317.262 98.6607L314.184 98.4107C314.34 97.6816 314.647 97.0514 315.105 96.5201C315.564 95.9837 316.155 95.5722 316.879 95.2857C317.608 94.9941 318.452 94.8482 319.41 94.8482C320.077 94.8482 320.715 94.9264 321.324 95.0826C321.939 95.2389 322.483 95.4811 322.957 95.8092C323.436 96.1373 323.814 96.5592 324.09 97.0748C324.366 97.5852 324.504 98.1972 324.504 98.9107V107.004H321.348V105.34H321.254C321.061 105.715 320.803 106.046 320.48 106.333C320.158 106.614 319.769 106.835 319.316 106.997C318.863 107.153 318.34 107.231 317.746 107.231ZM318.699 104.934C319.189 104.934 319.621 104.838 319.996 104.645C320.371 104.447 320.665 104.182 320.879 103.848C321.092 103.515 321.199 103.137 321.199 102.715V101.442C321.095 101.51 320.952 101.572 320.769 101.629C320.592 101.682 320.392 101.731 320.168 101.778C319.944 101.82 319.72 101.859 319.496 101.895C319.272 101.926 319.069 101.955 318.887 101.981C318.496 102.038 318.155 102.129 317.863 102.254C317.572 102.379 317.345 102.549 317.184 102.762C317.022 102.971 316.941 103.231 316.941 103.544C316.941 103.997 317.105 104.343 317.434 104.583C317.767 104.817 318.189 104.934 318.699 104.934ZM327.148 107.004V91.0045H330.477V97.0201H330.578C330.724 96.6972 330.935 96.3691 331.211 96.0357C331.492 95.6972 331.857 95.416 332.305 95.192C332.758 94.9628 333.32 94.8482 333.992 94.8482C334.867 94.8482 335.674 95.0774 336.414 95.5357C337.154 95.9889 337.745 96.6738 338.187 97.5904C338.63 98.5019 338.852 99.6451 338.852 101.02C338.852 102.359 338.635 103.489 338.203 104.411C337.776 105.327 337.193 106.023 336.453 106.497C335.719 106.965 334.896 107.2 333.984 107.2C333.338 107.2 332.789 107.093 332.336 106.879C331.888 106.666 331.521 106.398 331.234 106.075C330.948 105.747 330.729 105.416 330.578 105.083H330.43V107.004H327.148ZM330.406 101.004C330.406 101.718 330.505 102.34 330.703 102.872C330.901 103.403 331.187 103.817 331.562 104.114C331.937 104.406 332.393 104.551 332.93 104.551C333.471 104.551 333.93 104.403 334.305 104.106C334.68 103.804 334.963 103.387 335.156 102.856C335.354 102.32 335.453 101.702 335.453 101.004C335.453 100.312 335.357 99.7024 335.164 99.1764C334.971 98.6503 334.687 98.2389 334.312 97.942C333.937 97.6451 333.477 97.4967 332.93 97.4967C332.388 97.4967 331.93 97.6399 331.555 97.9264C331.185 98.2128 330.901 98.6191 330.703 99.1451C330.505 99.6712 330.406 100.291 330.406 101.004ZM341.072 107.004V95.0045H344.299V97.0982H344.424C344.643 96.3535 345.01 95.791 345.525 95.4107C346.041 95.0253 346.635 94.8326 347.307 94.8326C347.473 94.8326 347.653 94.843 347.846 94.8639C348.038 94.8847 348.208 94.9133 348.353 94.9498V97.9029C348.197 97.8561 347.981 97.8144 347.705 97.7779C347.429 97.7415 347.176 97.7232 346.947 97.7232C346.458 97.7232 346.02 97.83 345.635 98.0436C345.255 98.2519 344.952 98.5436 344.728 98.9186C344.51 99.2936 344.4 99.7258 344.4 100.215V107.004H341.072ZM350.074 107.004V95.0045H353.402V107.004H350.074ZM351.746 93.4576C351.251 93.4576 350.827 93.2936 350.473 92.9654C350.124 92.6321 349.949 92.2337 349.949 91.7701C349.949 91.3118 350.124 90.9186 350.473 90.5904C350.827 90.2571 351.251 90.0904 351.746 90.0904C352.241 90.0904 352.663 90.2571 353.012 90.5904C353.366 90.9186 353.543 91.3118 353.543 91.7701C353.543 92.2337 353.366 92.6321 353.012 92.9654C352.663 93.2936 352.241 93.4576 351.746 93.4576ZM361.49 107.239C360.261 107.239 359.204 106.978 358.318 106.458C357.438 105.932 356.761 105.202 356.287 104.27C355.818 103.338 355.584 102.265 355.584 101.051C355.584 99.8222 355.821 98.7441 356.295 97.817C356.774 96.8847 357.454 96.1581 358.334 95.6373C359.214 95.1113 360.261 94.8482 361.475 94.8482C362.521 94.8482 363.438 95.0383 364.225 95.4186C365.011 95.7988 365.633 96.3326 366.092 97.0201C366.55 97.7076 366.803 98.5149 366.85 99.442H363.709C363.62 98.843 363.386 98.3613 363.006 97.9967C362.631 97.6269 362.139 97.442 361.529 97.442C361.014 97.442 360.563 97.5826 360.178 97.8639C359.797 98.1399 359.501 98.5436 359.287 99.0748C359.074 99.6061 358.967 100.249 358.967 101.004C358.967 101.77 359.071 102.421 359.279 102.958C359.493 103.494 359.792 103.903 360.178 104.184C360.563 104.465 361.014 104.606 361.529 104.606C361.909 104.606 362.251 104.528 362.553 104.372C362.86 104.215 363.113 103.989 363.31 103.692C363.514 103.39 363.646 103.028 363.709 102.606H366.85C366.797 103.523 366.547 104.33 366.1 105.028C365.657 105.721 365.045 106.262 364.264 106.653C363.482 107.044 362.558 107.239 361.49 107.239ZM374.432 107.004V95.0045H376.213V96.8795H376.369C376.619 96.2389 377.023 95.7415 377.58 95.3873C378.137 95.0279 378.807 94.8482 379.588 94.8482C380.38 94.8482 381.038 95.0279 381.564 95.3873C382.096 95.7415 382.51 96.2389 382.807 96.8795H382.932C383.239 96.2597 383.7 95.7675 384.314 95.4029C384.929 95.0331 385.666 94.8482 386.525 94.8482C387.598 94.8482 388.476 95.1842 389.158 95.8561C389.84 96.5227 390.182 97.5618 390.182 98.9732V107.004H388.338V98.9732C388.338 98.0878 388.096 97.455 387.611 97.0748C387.127 96.6946 386.557 96.5045 385.9 96.5045C385.057 96.5045 384.403 96.7597 383.939 97.2701C383.476 97.7753 383.244 98.416 383.244 99.192V107.004H381.369V98.7857C381.369 98.1035 381.148 97.554 380.705 97.1373C380.262 96.7154 379.692 96.5045 378.994 96.5045C378.515 96.5045 378.067 96.6321 377.65 96.8873C377.239 97.1425 376.906 97.4967 376.65 97.9498C376.4 98.3977 376.275 98.916 376.275 99.5045V107.004H374.432ZM398.428 107.254C397.344 107.254 396.394 106.997 395.576 106.481C394.764 105.965 394.128 105.244 393.67 104.317C393.217 103.39 392.99 102.307 392.99 101.067C392.99 99.817 393.217 98.7258 393.67 97.7936C394.128 96.8613 394.764 96.1373 395.576 95.6217C396.394 95.1061 397.344 94.8482 398.428 94.8482C399.511 94.8482 400.459 95.1061 401.271 95.6217C402.089 96.1373 402.725 96.8613 403.178 97.7936C403.636 98.7258 403.865 99.817 403.865 101.067C403.865 102.307 403.636 103.39 403.178 104.317C402.725 105.244 402.089 105.965 401.271 106.481C400.459 106.997 399.511 107.254 398.428 107.254ZM398.428 105.598C399.251 105.598 399.928 105.387 400.459 104.965C400.99 104.544 401.383 103.989 401.639 103.301C401.894 102.614 402.021 101.869 402.021 101.067C402.021 100.265 401.894 99.5175 401.639 98.8248C401.383 98.1321 400.99 97.5722 400.459 97.1451C399.928 96.718 399.251 96.5045 398.428 96.5045C397.605 96.5045 396.928 96.718 396.396 97.1451C395.865 97.5722 395.472 98.1321 395.217 98.8248C394.962 99.5175 394.834 100.265 394.834 101.067C394.834 101.869 394.962 102.614 395.217 103.301C395.472 103.989 395.865 104.544 396.396 104.965C396.928 105.387 397.605 105.598 398.428 105.598ZM411.211 107.254C410.211 107.254 409.328 107.002 408.562 106.497C407.797 105.986 407.198 105.268 406.766 104.34C406.333 103.408 406.117 102.307 406.117 101.036C406.117 99.7753 406.333 98.6816 406.766 97.7545C407.198 96.8274 407.799 96.1113 408.57 95.6061C409.341 95.1008 410.232 94.8482 411.242 94.8482C412.023 94.8482 412.641 94.9785 413.094 95.2389C413.552 95.4941 413.901 95.7857 414.141 96.1139C414.385 96.4368 414.575 96.7024 414.711 96.9107H414.867V91.0045H416.711V107.004H414.93V105.161H414.711C414.575 105.379 414.383 105.656 414.133 105.989C413.883 106.317 413.526 106.611 413.062 106.872C412.599 107.127 411.982 107.254 411.211 107.254ZM411.461 105.598C412.2 105.598 412.825 105.406 413.336 105.02C413.846 104.629 414.234 104.09 414.5 103.403C414.766 102.71 414.898 101.911 414.898 101.004C414.898 100.109 414.768 99.3248 414.508 98.6529C414.247 97.9758 413.862 97.4498 413.351 97.0748C412.841 96.6946 412.211 96.5045 411.461 96.5045C410.68 96.5045 410.029 96.705 409.508 97.1061C408.992 97.5019 408.604 98.041 408.344 98.7232C408.088 99.4003 407.961 100.161 407.961 101.004C407.961 101.859 408.091 102.635 408.351 103.333C408.617 104.025 409.008 104.577 409.523 104.989C410.044 105.395 410.69 105.598 411.461 105.598ZM428.844 97.692L427.187 98.1607C427.083 97.8847 426.93 97.6165 426.726 97.3561C426.529 97.0904 426.258 96.8717 425.914 96.6998C425.57 96.5279 425.13 96.442 424.594 96.442C423.859 96.442 423.247 96.6113 422.758 96.9498C422.273 97.2831 422.031 97.7076 422.031 98.2232C422.031 98.6816 422.198 99.0436 422.531 99.3092C422.865 99.5748 423.385 99.7962 424.094 99.9732L425.875 100.411C426.948 100.671 427.747 101.07 428.273 101.606C428.799 102.137 429.062 102.822 429.062 103.661C429.062 104.348 428.865 104.963 428.469 105.504C428.078 106.046 427.531 106.473 426.828 106.786C426.125 107.098 425.307 107.254 424.375 107.254C423.151 107.254 422.138 106.989 421.336 106.458C420.534 105.926 420.026 105.15 419.812 104.129L421.562 103.692C421.729 104.338 422.044 104.822 422.508 105.145C422.976 105.468 423.588 105.629 424.344 105.629C425.203 105.629 425.885 105.447 426.391 105.083C426.901 104.713 427.156 104.27 427.156 103.754C427.156 103.338 427.01 102.989 426.719 102.708C426.427 102.421 425.979 102.208 425.375 102.067L423.375 101.598C422.276 101.338 421.469 100.934 420.953 100.387C420.443 99.8352 420.187 99.1451 420.187 98.317C420.187 97.6399 420.378 97.041 420.758 96.5201C421.143 95.9993 421.667 95.5904 422.328 95.2936C422.995 94.9967 423.75 94.8482 424.594 94.8482C425.781 94.8482 426.713 95.1087 427.391 95.6295C428.073 96.1503 428.557 96.8378 428.844 97.692ZM443.244 95.0045V96.567H437.025V95.0045H443.244ZM438.838 92.1295H440.682V103.567C440.682 104.088 440.757 104.478 440.908 104.739C441.064 104.994 441.262 105.166 441.502 105.254C441.747 105.338 442.004 105.379 442.275 105.379C442.478 105.379 442.645 105.369 442.775 105.348C442.906 105.322 443.01 105.301 443.088 105.286L443.463 106.942C443.338 106.989 443.163 107.036 442.939 107.083C442.715 107.135 442.432 107.161 442.088 107.161C441.567 107.161 441.057 107.049 440.557 106.825C440.062 106.601 439.65 106.26 439.322 105.801C438.999 105.343 438.838 104.765 438.838 104.067V92.1295ZM450.764 107.254C449.68 107.254 448.73 106.997 447.912 106.481C447.1 105.965 446.464 105.244 446.006 104.317C445.553 103.39 445.326 102.307 445.326 101.067C445.326 99.817 445.553 98.7258 446.006 97.7936C446.464 96.8613 447.1 96.1373 447.912 95.6217C448.73 95.1061 449.68 94.8482 450.764 94.8482C451.847 94.8482 452.795 95.1061 453.607 95.6217C454.425 96.1373 455.06 96.8613 455.514 97.7936C455.972 98.7258 456.201 99.817 456.201 101.067C456.201 102.307 455.972 103.39 455.514 104.317C455.06 105.244 454.425 105.965 453.607 106.481C452.795 106.997 451.847 107.254 450.764 107.254ZM450.764 105.598C451.587 105.598 452.264 105.387 452.795 104.965C453.326 104.544 453.719 103.989 453.975 103.301C454.23 102.614 454.357 101.869 454.357 101.067C454.357 100.265 454.23 99.5175 453.975 98.8248C453.719 98.1321 453.326 97.5722 452.795 97.1451C452.264 96.718 451.587 96.5045 450.764 96.5045C449.941 96.5045 449.264 96.718 448.732 97.1451C448.201 97.5722 447.808 98.1321 447.553 98.8248C447.297 99.5175 447.17 100.265 447.17 101.067C447.17 101.869 447.297 102.614 447.553 103.301C447.808 103.989 448.201 104.544 448.732 104.965C449.264 105.387 449.941 105.598 450.764 105.598ZM570.359 107.129C569.974 107.129 569.643 106.991 569.367 106.715C569.091 106.439 568.953 106.109 568.953 105.723C568.953 105.338 569.091 105.007 569.367 104.731C569.643 104.455 569.974 104.317 570.359 104.317C570.745 104.317 571.075 104.455 571.351 104.731C571.627 105.007 571.766 105.338 571.766 105.723C571.766 105.978 571.7 106.213 571.57 106.426C571.445 106.64 571.276 106.812 571.062 106.942C570.854 107.067 570.62 107.129 570.359 107.129ZM189.937 135.004V119.004H191.875V126.942H192.062L199.25 119.004H201.781L195.062 126.223L201.781 135.004H199.437L193.875 127.567L191.875 129.817V135.004H189.937ZM208.189 135.254C207.033 135.254 206.036 134.999 205.197 134.489C204.364 133.973 203.721 133.254 203.268 132.333C202.82 131.406 202.596 130.327 202.596 129.098C202.596 127.869 202.82 126.786 203.268 125.848C203.721 124.906 204.351 124.171 205.158 123.645C205.971 123.114 206.919 122.848 208.002 122.848C208.627 122.848 209.244 122.952 209.854 123.161C210.463 123.369 211.018 123.708 211.518 124.176C212.018 124.64 212.416 125.254 212.713 126.02C213.01 126.786 213.158 127.728 213.158 128.848V129.629H203.908V128.036H211.283C211.283 127.359 211.148 126.754 210.877 126.223C210.611 125.692 210.231 125.273 209.736 124.965C209.247 124.658 208.669 124.504 208.002 124.504C207.268 124.504 206.632 124.687 206.096 125.051C205.564 125.411 205.156 125.879 204.869 126.458C204.583 127.036 204.439 127.656 204.439 128.317V129.379C204.439 130.286 204.596 131.054 204.908 131.684C205.226 132.309 205.666 132.786 206.229 133.114C206.791 133.437 207.445 133.598 208.189 133.598C208.674 133.598 209.111 133.531 209.502 133.395C209.898 133.254 210.239 133.046 210.525 132.77C210.812 132.489 211.033 132.14 211.189 131.723L212.971 132.223C212.783 132.827 212.468 133.359 212.025 133.817C211.583 134.27 211.036 134.624 210.385 134.879C209.734 135.129 209.002 135.254 208.189 135.254ZM220.994 135.254C219.838 135.254 218.84 134.999 218.002 134.489C217.169 133.973 216.525 133.254 216.072 132.333C215.624 131.406 215.4 130.327 215.4 129.098C215.4 127.869 215.624 126.786 216.072 125.848C216.525 124.906 217.156 124.171 217.963 123.645C218.775 123.114 219.723 122.848 220.807 122.848C221.432 122.848 222.049 122.952 222.658 123.161C223.268 123.369 223.822 123.708 224.322 124.176C224.822 124.64 225.221 125.254 225.518 126.02C225.814 126.786 225.963 127.728 225.963 128.848V129.629H216.713V128.036H224.088C224.088 127.359 223.952 126.754 223.682 126.223C223.416 125.692 223.036 125.273 222.541 124.965C222.051 124.658 221.473 124.504 220.807 124.504C220.072 124.504 219.437 124.687 218.9 125.051C218.369 125.411 217.96 125.879 217.674 126.458C217.387 127.036 217.244 127.656 217.244 128.317V129.379C217.244 130.286 217.4 131.054 217.713 131.684C218.031 132.309 218.471 132.786 219.033 133.114C219.596 133.437 220.249 133.598 220.994 133.598C221.479 133.598 221.916 133.531 222.307 133.395C222.702 133.254 223.044 133.046 223.33 132.77C223.617 132.489 223.838 132.14 223.994 131.723L225.775 132.223C225.588 132.827 225.273 133.359 224.83 133.817C224.387 134.27 223.84 134.624 223.189 134.879C222.538 135.129 221.807 135.254 220.994 135.254ZM228.768 139.504V123.004H230.549V124.911H230.768C230.903 124.702 231.09 124.437 231.33 124.114C231.575 123.786 231.924 123.494 232.377 123.239C232.835 122.978 233.455 122.848 234.236 122.848C235.247 122.848 236.137 123.101 236.908 123.606C237.679 124.111 238.281 124.827 238.713 125.754C239.145 126.682 239.361 127.775 239.361 129.036C239.361 130.307 239.145 131.408 238.713 132.34C238.281 133.268 237.682 133.986 236.916 134.497C236.15 135.002 235.268 135.254 234.268 135.254C233.497 135.254 232.88 135.127 232.416 134.872C231.952 134.611 231.596 134.317 231.346 133.989C231.096 133.656 230.903 133.379 230.768 133.161H230.611V139.504H228.768ZM230.58 129.004C230.58 129.911 230.713 130.71 230.979 131.403C231.244 132.09 231.632 132.629 232.143 133.02C232.653 133.406 233.278 133.598 234.018 133.598C234.788 133.598 235.432 133.395 235.947 132.989C236.468 132.577 236.859 132.025 237.119 131.333C237.385 130.635 237.518 129.859 237.518 129.004C237.518 128.161 237.387 127.4 237.127 126.723C236.872 126.041 236.484 125.502 235.963 125.106C235.447 124.705 234.799 124.504 234.018 124.504C233.268 124.504 232.637 124.695 232.127 125.075C231.617 125.45 231.231 125.976 230.971 126.653C230.71 127.325 230.58 128.109 230.58 129.004ZM255.924 130.098V123.004H257.768V135.004H255.924V132.973H255.799C255.518 133.583 255.08 134.101 254.486 134.528C253.893 134.95 253.143 135.161 252.236 135.161C251.486 135.161 250.82 134.997 250.236 134.669C249.653 134.335 249.195 133.835 248.861 133.169C248.528 132.497 248.361 131.65 248.361 130.629V123.004H250.205V130.504C250.205 131.379 250.45 132.077 250.939 132.598C251.434 133.119 252.064 133.379 252.83 133.379C253.288 133.379 253.755 133.262 254.228 133.028C254.708 132.794 255.109 132.434 255.432 131.95C255.76 131.465 255.924 130.848 255.924 130.098ZM269.645 125.692L267.988 126.161C267.884 125.885 267.73 125.616 267.527 125.356C267.329 125.09 267.059 124.872 266.715 124.7C266.371 124.528 265.931 124.442 265.395 124.442C264.66 124.442 264.048 124.611 263.559 124.95C263.074 125.283 262.832 125.708 262.832 126.223C262.832 126.682 262.999 127.044 263.332 127.309C263.665 127.575 264.186 127.796 264.895 127.973L266.676 128.411C267.749 128.671 268.548 129.07 269.074 129.606C269.6 130.137 269.863 130.822 269.863 131.661C269.863 132.348 269.665 132.963 269.27 133.504C268.879 134.046 268.332 134.473 267.629 134.786C266.926 135.098 266.108 135.254 265.176 135.254C263.952 135.254 262.939 134.989 262.137 134.458C261.335 133.926 260.827 133.15 260.613 132.129L262.363 131.692C262.53 132.338 262.845 132.822 263.309 133.145C263.777 133.468 264.389 133.629 265.145 133.629C266.004 133.629 266.686 133.447 267.191 133.083C267.702 132.713 267.957 132.27 267.957 131.754C267.957 131.338 267.811 130.989 267.52 130.708C267.228 130.421 266.78 130.208 266.176 130.067L264.176 129.598C263.077 129.338 262.27 128.934 261.754 128.387C261.243 127.835 260.988 127.145 260.988 126.317C260.988 125.64 261.178 125.041 261.559 124.52C261.944 123.999 262.467 123.59 263.129 123.294C263.796 122.997 264.551 122.848 265.395 122.848C266.582 122.848 267.514 123.109 268.191 123.629C268.874 124.15 269.358 124.838 269.645 125.692ZM272.639 135.004V123.004H274.482V135.004H272.639ZM273.576 121.004C273.217 121.004 272.907 120.882 272.646 120.637C272.391 120.393 272.264 120.098 272.264 119.754C272.264 119.411 272.391 119.116 272.646 118.872C272.907 118.627 273.217 118.504 273.576 118.504C273.936 118.504 274.243 118.627 274.498 118.872C274.758 119.116 274.889 119.411 274.889 119.754C274.889 120.098 274.758 120.393 274.498 120.637C274.243 120.882 273.936 121.004 273.576 121.004ZM279.703 127.786V135.004H277.859V123.004H279.641V124.879H279.797C280.078 124.27 280.505 123.781 281.078 123.411C281.651 123.036 282.391 122.848 283.297 122.848C284.109 122.848 284.82 123.015 285.43 123.348C286.039 123.676 286.513 124.176 286.852 124.848C287.19 125.515 287.359 126.359 287.359 127.379V135.004H285.516V127.504C285.516 126.562 285.271 125.827 284.781 125.301C284.292 124.77 283.62 124.504 282.766 124.504C282.177 124.504 281.651 124.632 281.187 124.887C280.729 125.143 280.367 125.515 280.102 126.004C279.836 126.494 279.703 127.088 279.703 127.786ZM295.572 139.754C294.682 139.754 293.916 139.64 293.275 139.411C292.635 139.187 292.101 138.89 291.674 138.52C291.252 138.156 290.916 137.765 290.666 137.348L292.135 136.317C292.301 136.536 292.512 136.786 292.768 137.067C293.023 137.353 293.372 137.601 293.814 137.809C294.262 138.023 294.848 138.129 295.572 138.129C296.541 138.129 297.34 137.895 297.971 137.426C298.601 136.958 298.916 136.223 298.916 135.223V132.786H298.76C298.624 133.004 298.432 133.275 298.182 133.598C297.937 133.916 297.583 134.2 297.119 134.45C296.661 134.695 296.041 134.817 295.26 134.817C294.291 134.817 293.421 134.588 292.65 134.129C291.885 133.671 291.278 133.004 290.83 132.129C290.387 131.254 290.166 130.192 290.166 128.942C290.166 127.713 290.382 126.643 290.814 125.731C291.247 124.814 291.848 124.106 292.619 123.606C293.39 123.101 294.281 122.848 295.291 122.848C296.072 122.848 296.692 122.978 297.15 123.239C297.614 123.494 297.968 123.786 298.213 124.114C298.463 124.437 298.656 124.702 298.791 124.911H298.978V123.004H300.76V135.348C300.76 136.379 300.525 137.218 300.057 137.864C299.593 138.515 298.968 138.991 298.182 139.294C297.4 139.601 296.531 139.754 295.572 139.754ZM295.51 133.161C296.249 133.161 296.874 132.991 297.385 132.653C297.895 132.314 298.283 131.827 298.549 131.192C298.814 130.557 298.947 129.796 298.947 128.911C298.947 128.046 298.817 127.283 298.557 126.622C298.296 125.96 297.911 125.442 297.4 125.067C296.89 124.692 296.26 124.504 295.51 124.504C294.728 124.504 294.077 124.702 293.557 125.098C293.041 125.494 292.653 126.025 292.393 126.692C292.137 127.359 292.01 128.098 292.01 128.911C292.01 129.744 292.14 130.481 292.4 131.122C292.666 131.757 293.057 132.257 293.572 132.622C294.093 132.981 294.739 133.161 295.51 133.161ZM311.51 139.504C311.197 139.504 310.919 139.478 310.674 139.426C310.429 139.379 310.26 139.333 310.166 139.286L310.635 137.661C311.083 137.775 311.478 137.817 311.822 137.786C312.166 137.754 312.471 137.601 312.736 137.325C313.007 137.054 313.255 136.614 313.478 136.004L313.822 135.067L309.385 123.004H311.385L314.697 132.567H314.822L318.135 123.004H320.135L315.041 136.754C314.812 137.374 314.528 137.887 314.189 138.294C313.851 138.705 313.458 139.01 313.01 139.208C312.567 139.406 312.067 139.504 311.51 139.504ZM327.014 135.254C325.93 135.254 324.98 134.997 324.162 134.481C323.35 133.965 322.714 133.244 322.256 132.317C321.803 131.39 321.576 130.307 321.576 129.067C321.576 127.817 321.803 126.726 322.256 125.794C322.714 124.861 323.35 124.137 324.162 123.622C324.98 123.106 325.93 122.848 327.014 122.848C328.097 122.848 329.045 123.106 329.857 123.622C330.675 124.137 331.311 124.861 331.764 125.794C332.222 126.726 332.451 127.817 332.451 129.067C332.451 130.307 332.222 131.39 331.764 132.317C331.311 133.244 330.675 133.965 329.857 134.481C329.045 134.997 328.097 135.254 327.014 135.254ZM327.014 133.598C327.837 133.598 328.514 133.387 329.045 132.965C329.576 132.544 329.969 131.989 330.225 131.301C330.48 130.614 330.607 129.869 330.607 129.067C330.607 128.265 330.48 127.518 330.225 126.825C329.969 126.132 329.576 125.572 329.045 125.145C328.514 124.718 327.837 124.504 327.014 124.504C326.191 124.504 325.514 124.718 324.982 125.145C324.451 125.572 324.058 126.132 323.803 126.825C323.547 127.518 323.42 128.265 323.42 129.067C323.42 129.869 323.547 130.614 323.803 131.301C324.058 131.989 324.451 132.544 324.982 132.965C325.514 133.387 326.191 133.598 327.014 133.598ZM342.828 130.098V123.004H344.672V135.004H342.828V132.973H342.703C342.422 133.583 341.984 134.101 341.391 134.528C340.797 134.95 340.047 135.161 339.141 135.161C338.391 135.161 337.724 134.997 337.141 134.669C336.557 134.335 336.099 133.835 335.766 133.169C335.432 132.497 335.266 131.65 335.266 130.629V123.004H337.109V130.504C337.109 131.379 337.354 132.077 337.844 132.598C338.338 133.119 338.969 133.379 339.734 133.379C340.193 133.379 340.659 133.262 341.133 133.028C341.612 132.794 342.013 132.434 342.336 131.95C342.664 131.465 342.828 130.848 342.828 130.098ZM348.049 135.004V123.004H349.83V124.817H349.955C350.174 124.223 350.57 123.741 351.143 123.372C351.715 123.002 352.361 122.817 353.08 122.817C353.215 122.817 353.385 122.82 353.588 122.825C353.791 122.83 353.945 122.838 354.049 122.848V124.723C353.986 124.708 353.843 124.684 353.619 124.653C353.4 124.616 353.169 124.598 352.924 124.598C352.34 124.598 351.82 124.721 351.361 124.965C350.908 125.205 350.549 125.538 350.283 125.965C350.023 126.387 349.893 126.869 349.893 127.411V135.004H348.049ZM367.766 123.004V124.567H361.297V123.004H367.766ZM363.234 135.004V121.348C363.234 120.661 363.396 120.088 363.719 119.629C364.042 119.171 364.461 118.827 364.977 118.598C365.492 118.369 366.036 118.254 366.609 118.254C367.062 118.254 367.432 118.291 367.719 118.364C368.005 118.437 368.219 118.504 368.359 118.567L367.828 120.161C367.734 120.129 367.604 120.09 367.437 120.044C367.276 119.997 367.062 119.973 366.797 119.973C366.187 119.973 365.747 120.127 365.477 120.434C365.211 120.741 365.078 121.192 365.078 121.786V135.004H363.234ZM373.537 135.286C372.777 135.286 372.087 135.143 371.467 134.856C370.847 134.564 370.355 134.145 369.99 133.598C369.626 133.046 369.443 132.379 369.443 131.598C369.443 130.911 369.579 130.353 369.85 129.926C370.12 129.494 370.482 129.156 370.935 128.911C371.389 128.666 371.889 128.484 372.435 128.364C372.988 128.239 373.542 128.14 374.1 128.067C374.829 127.973 375.42 127.903 375.873 127.856C376.331 127.804 376.665 127.718 376.873 127.598C377.087 127.478 377.193 127.27 377.193 126.973V126.911C377.193 126.14 376.982 125.541 376.56 125.114C376.144 124.687 375.511 124.473 374.662 124.473C373.782 124.473 373.092 124.666 372.592 125.051C372.092 125.437 371.74 125.848 371.537 126.286L369.787 125.661C370.1 124.932 370.516 124.364 371.037 123.958C371.563 123.546 372.136 123.26 372.756 123.098C373.381 122.932 373.995 122.848 374.6 122.848C374.985 122.848 375.428 122.895 375.928 122.989C376.433 123.077 376.92 123.262 377.389 123.544C377.863 123.825 378.256 124.249 378.568 124.817C378.881 125.385 379.037 126.145 379.037 127.098V135.004H377.193V133.379H377.1C376.975 133.64 376.766 133.919 376.475 134.215C376.183 134.512 375.795 134.765 375.31 134.973C374.826 135.182 374.235 135.286 373.537 135.286ZM373.818 133.629C374.547 133.629 375.162 133.486 375.662 133.2C376.167 132.913 376.547 132.544 376.803 132.09C377.063 131.637 377.193 131.161 377.193 130.661V128.973C377.115 129.067 376.943 129.153 376.678 129.231C376.417 129.304 376.115 129.369 375.771 129.426C375.433 129.478 375.102 129.525 374.779 129.567C374.462 129.603 374.204 129.635 374.006 129.661C373.527 129.723 373.079 129.825 372.662 129.965C372.251 130.101 371.917 130.307 371.662 130.583C371.412 130.853 371.287 131.223 371.287 131.692C371.287 132.333 371.524 132.817 371.998 133.145C372.477 133.468 373.084 133.629 373.818 133.629ZM391.785 123.004L387.348 135.004H385.473L381.035 123.004H383.035L386.348 132.567H386.473L389.785 123.004H391.785ZM398.664 135.254C397.581 135.254 396.63 134.997 395.812 134.481C395 133.965 394.365 133.244 393.906 132.317C393.453 131.39 393.227 130.307 393.227 129.067C393.227 127.817 393.453 126.726 393.906 125.794C394.365 124.861 395 124.137 395.812 123.622C396.63 123.106 397.581 122.848 398.664 122.848C399.747 122.848 400.695 123.106 401.508 123.622C402.325 124.137 402.961 124.861 403.414 125.794C403.872 126.726 404.101 127.817 404.101 129.067C404.101 130.307 403.872 131.39 403.414 132.317C402.961 133.244 402.325 133.965 401.508 134.481C400.695 134.997 399.747 135.254 398.664 135.254ZM398.664 133.598C399.487 133.598 400.164 133.387 400.695 132.965C401.226 132.544 401.62 131.989 401.875 131.301C402.13 130.614 402.258 129.869 402.258 129.067C402.258 128.265 402.13 127.518 401.875 126.825C401.62 126.132 401.226 125.572 400.695 125.145C400.164 124.718 399.487 124.504 398.664 124.504C397.841 124.504 397.164 124.718 396.633 125.145C396.102 125.572 395.708 126.132 395.453 126.825C395.198 127.518 395.07 128.265 395.07 129.067C395.07 129.869 395.198 130.614 395.453 131.301C395.708 131.989 396.102 132.544 396.633 132.965C397.164 133.387 397.841 133.598 398.664 133.598ZM406.916 135.004V123.004H408.697V124.817H408.822C409.041 124.223 409.437 123.741 410.01 123.372C410.583 123.002 411.228 122.817 411.947 122.817C412.083 122.817 412.252 122.82 412.455 122.825C412.658 122.83 412.812 122.838 412.916 122.848V124.723C412.853 124.708 412.71 124.684 412.486 124.653C412.268 124.616 412.036 124.598 411.791 124.598C411.208 124.598 410.687 124.721 410.228 124.965C409.775 125.205 409.416 125.538 409.15 125.965C408.89 126.387 408.76 126.869 408.76 127.411V135.004H406.916ZM415.101 135.004V123.004H416.945V135.004H415.101ZM416.039 121.004C415.68 121.004 415.37 120.882 415.109 120.637C414.854 120.393 414.726 120.098 414.726 119.754C414.726 119.411 414.854 119.116 415.109 118.872C415.37 118.627 415.68 118.504 416.039 118.504C416.398 118.504 416.706 118.627 416.961 118.872C417.221 119.116 417.351 119.411 417.351 119.754C417.351 120.098 417.221 120.393 416.961 120.637C416.706 120.882 416.398 121.004 416.039 121.004ZM425.541 123.004V124.567H419.322V123.004H425.541ZM421.135 120.129H422.978V131.567C422.978 132.088 423.054 132.478 423.205 132.739C423.361 132.994 423.559 133.166 423.799 133.254C424.044 133.338 424.301 133.379 424.572 133.379C424.775 133.379 424.942 133.369 425.072 133.348C425.202 133.322 425.307 133.301 425.385 133.286L425.76 134.942C425.635 134.989 425.46 135.036 425.236 135.083C425.012 135.135 424.728 135.161 424.385 135.161C423.864 135.161 423.353 135.049 422.853 134.825C422.359 134.601 421.947 134.26 421.619 133.801C421.296 133.343 421.135 132.765 421.135 132.067V120.129ZM433.217 135.254C432.06 135.254 431.063 134.999 430.225 134.489C429.391 133.973 428.748 133.254 428.295 132.333C427.847 131.406 427.623 130.327 427.623 129.098C427.623 127.869 427.847 126.786 428.295 125.848C428.748 124.906 429.378 124.171 430.185 123.645C430.998 123.114 431.946 122.848 433.029 122.848C433.654 122.848 434.271 122.952 434.881 123.161C435.49 123.369 436.045 123.708 436.545 124.176C437.045 124.64 437.443 125.254 437.74 126.02C438.037 126.786 438.185 127.728 438.185 128.848V129.629H428.935V128.036H436.31C436.31 127.359 436.175 126.754 435.904 126.223C435.639 125.692 435.258 125.273 434.764 124.965C434.274 124.658 433.696 124.504 433.029 124.504C432.295 124.504 431.659 124.687 431.123 125.051C430.592 125.411 430.183 125.879 429.896 126.458C429.61 127.036 429.467 127.656 429.467 128.317V129.379C429.467 130.286 429.623 131.054 429.935 131.684C430.253 132.309 430.693 132.786 431.256 133.114C431.818 133.437 432.472 133.598 433.217 133.598C433.701 133.598 434.139 133.531 434.529 133.395C434.925 133.254 435.266 133.046 435.553 132.77C435.839 132.489 436.06 132.14 436.217 131.723L437.998 132.223C437.81 132.827 437.495 133.359 437.053 133.817C436.61 134.27 436.063 134.624 435.412 134.879C434.761 135.129 434.029 135.254 433.217 135.254ZM448.084 135.004H446.053L451.928 119.004H453.928L459.803 135.004H457.771L452.99 121.536H452.865L448.084 135.004ZM448.834 128.754H457.021V130.473H448.834V128.754ZM462.295 135.004V119.004H467.701C468.956 119.004 469.982 119.231 470.779 119.684C471.581 120.132 472.175 120.739 472.56 121.504C472.946 122.27 473.139 123.124 473.139 124.067C473.139 125.01 472.946 125.866 472.56 126.637C472.18 127.408 471.592 128.023 470.795 128.481C469.998 128.934 468.977 129.161 467.732 129.161H463.857V127.442H467.67C468.529 127.442 469.219 127.294 469.74 126.997C470.261 126.7 470.639 126.299 470.873 125.794C471.113 125.283 471.232 124.708 471.232 124.067C471.232 123.426 471.113 122.853 470.873 122.348C470.639 121.843 470.258 121.447 469.732 121.161C469.206 120.869 468.508 120.723 467.639 120.723H464.232V135.004H462.295ZM478.197 119.004V135.004H476.26V119.004H478.197ZM491.551 135.286C490.79 135.286 490.1 135.143 489.48 134.856C488.861 134.564 488.368 134.145 488.004 133.598C487.639 133.046 487.457 132.379 487.457 131.598C487.457 130.911 487.592 130.353 487.863 129.926C488.134 129.494 488.496 129.156 488.949 128.911C489.402 128.666 489.902 128.484 490.449 128.364C491.001 128.239 491.556 128.14 492.113 128.067C492.842 127.973 493.434 127.903 493.887 127.856C494.345 127.804 494.678 127.718 494.887 127.598C495.1 127.478 495.207 127.27 495.207 126.973V126.911C495.207 126.14 494.996 125.541 494.574 125.114C494.157 124.687 493.525 124.473 492.676 124.473C491.795 124.473 491.105 124.666 490.605 125.051C490.105 125.437 489.754 125.848 489.551 126.286L487.801 125.661C488.113 124.932 488.53 124.364 489.051 123.958C489.577 123.546 490.15 123.26 490.769 123.098C491.394 122.932 492.009 122.848 492.613 122.848C492.999 122.848 493.441 122.895 493.941 122.989C494.447 123.077 494.934 123.262 495.402 123.544C495.876 123.825 496.269 124.249 496.582 124.817C496.894 125.385 497.051 126.145 497.051 127.098V135.004H495.207V133.379H495.113C494.988 133.64 494.78 133.919 494.488 134.215C494.197 134.512 493.809 134.765 493.324 134.973C492.84 135.182 492.249 135.286 491.551 135.286ZM491.832 133.629C492.561 133.629 493.176 133.486 493.676 133.2C494.181 132.913 494.561 132.544 494.816 132.09C495.077 131.637 495.207 131.161 495.207 130.661V128.973C495.129 129.067 494.957 129.153 494.691 129.231C494.431 129.304 494.129 129.369 493.785 129.426C493.447 129.478 493.116 129.525 492.793 129.567C492.475 129.603 492.217 129.635 492.019 129.661C491.54 129.723 491.092 129.825 490.676 129.965C490.264 130.101 489.931 130.307 489.676 130.583C489.426 130.853 489.301 131.223 489.301 131.692C489.301 132.333 489.538 132.817 490.012 133.145C490.491 133.468 491.098 133.629 491.832 133.629ZM502.26 127.786V135.004H500.416V123.004H502.197V124.879H502.353C502.635 124.27 503.062 123.781 503.635 123.411C504.208 123.036 504.947 122.848 505.853 122.848C506.666 122.848 507.377 123.015 507.986 123.348C508.596 123.676 509.07 124.176 509.408 124.848C509.747 125.515 509.916 126.359 509.916 127.379V135.004H508.072V127.504C508.072 126.562 507.827 125.827 507.338 125.301C506.848 124.77 506.176 124.504 505.322 124.504C504.734 124.504 504.208 124.632 503.744 124.887C503.286 125.143 502.924 125.515 502.658 126.004C502.392 126.494 502.26 127.088 502.26 127.786ZM517.816 135.254C516.816 135.254 515.933 135.002 515.168 134.497C514.402 133.986 513.803 133.268 513.371 132.34C512.939 131.408 512.723 130.307 512.723 129.036C512.723 127.775 512.939 126.682 513.371 125.754C513.803 124.827 514.405 124.111 515.176 123.606C515.947 123.101 516.837 122.848 517.848 122.848C518.629 122.848 519.246 122.978 519.699 123.239C520.157 123.494 520.506 123.786 520.746 124.114C520.991 124.437 521.181 124.702 521.316 124.911H521.473V119.004H523.316V135.004H521.535V133.161H521.316C521.181 133.379 520.988 133.656 520.738 133.989C520.488 134.317 520.131 134.611 519.668 134.872C519.204 135.127 518.587 135.254 517.816 135.254ZM518.066 133.598C518.806 133.598 519.431 133.406 519.941 133.02C520.452 132.629 520.84 132.09 521.105 131.403C521.371 130.71 521.504 129.911 521.504 129.004C521.504 128.109 521.374 127.325 521.113 126.653C520.853 125.976 520.467 125.45 519.957 125.075C519.447 124.695 518.816 124.504 518.066 124.504C517.285 124.504 516.634 124.705 516.113 125.106C515.598 125.502 515.21 126.041 514.949 126.723C514.694 127.4 514.566 128.161 514.566 129.004C514.566 129.859 514.697 130.635 514.957 131.333C515.223 132.025 515.613 132.577 516.129 132.989C516.65 133.395 517.295 133.598 518.066 133.598ZM538.355 123.004V124.567H532.137V123.004H538.355ZM533.949 120.129H535.793V131.567C535.793 132.088 535.868 132.478 536.019 132.739C536.176 132.994 536.374 133.166 536.613 133.254C536.858 133.338 537.116 133.379 537.387 133.379C537.59 133.379 537.756 133.369 537.887 133.348C538.017 133.322 538.121 133.301 538.199 133.286L538.574 134.942C538.449 134.989 538.275 135.036 538.051 135.083C537.827 135.135 537.543 135.161 537.199 135.161C536.678 135.161 536.168 135.049 535.668 134.825C535.173 134.601 534.762 134.26 534.433 133.801C534.111 133.343 533.949 132.765 533.949 132.067V120.129ZM545.875 135.254C544.792 135.254 543.841 134.997 543.023 134.481C542.211 133.965 541.575 133.244 541.117 132.317C540.664 131.39 540.437 130.307 540.437 129.067C540.437 127.817 540.664 126.726 541.117 125.794C541.575 124.861 542.211 124.137 543.023 123.622C543.841 123.106 544.792 122.848 545.875 122.848C546.958 122.848 547.906 123.106 548.719 123.622C549.536 124.137 550.172 124.861 550.625 125.794C551.083 126.726 551.312 127.817 551.312 129.067C551.312 130.307 551.083 131.39 550.625 132.317C550.172 133.244 549.536 133.965 548.719 134.481C547.906 134.997 546.958 135.254 545.875 135.254ZM545.875 133.598C546.698 133.598 547.375 133.387 547.906 132.965C548.437 132.544 548.831 131.989 549.086 131.301C549.341 130.614 549.469 129.869 549.469 129.067C549.469 128.265 549.341 127.518 549.086 126.825C548.831 126.132 548.437 125.572 547.906 125.145C547.375 124.718 546.698 124.504 545.875 124.504C545.052 124.504 544.375 124.718 543.844 125.145C543.312 125.572 542.919 126.132 542.664 126.825C542.409 127.518 542.281 128.265 542.281 129.067C542.281 129.869 542.409 130.614 542.664 131.301C542.919 131.989 543.312 132.544 543.844 132.965C544.375 133.387 545.052 133.598 545.875 133.598ZM559.002 135.254C557.919 135.254 556.968 134.997 556.15 134.481C555.338 133.965 554.702 133.244 554.244 132.317C553.791 131.39 553.564 130.307 553.564 129.067C553.564 127.817 553.791 126.726 554.244 125.794C554.702 124.861 555.338 124.137 556.15 123.622C556.968 123.106 557.919 122.848 559.002 122.848C560.085 122.848 561.033 123.106 561.846 123.622C562.663 124.137 563.299 124.861 563.752 125.794C564.21 126.726 564.439 127.817 564.439 129.067C564.439 130.307 564.21 131.39 563.752 132.317C563.299 133.244 562.663 133.965 561.846 134.481C561.033 134.997 560.085 135.254 559.002 135.254ZM559.002 133.598C559.825 133.598 560.502 133.387 561.033 132.965C561.564 132.544 561.958 131.989 562.213 131.301C562.468 130.614 562.596 129.869 562.596 129.067C562.596 128.265 562.468 127.518 562.213 126.825C561.958 126.132 561.564 125.572 561.033 125.145C560.502 124.718 559.825 124.504 559.002 124.504C558.179 124.504 557.502 124.718 556.971 125.145C556.439 125.572 556.046 126.132 555.791 126.825C555.536 127.518 555.408 128.265 555.408 129.067C555.408 129.869 555.536 130.614 555.791 131.301C556.046 131.989 556.439 132.544 556.971 132.965C557.502 133.387 558.179 133.598 559.002 133.598ZM569.098 119.004V135.004H567.254V119.004H569.098ZM580.974 125.692L579.318 126.161C579.214 125.885 579.06 125.616 578.857 125.356C578.659 125.09 578.389 124.872 578.045 124.7C577.701 124.528 577.261 124.442 576.724 124.442C575.99 124.442 575.378 124.611 574.889 124.95C574.404 125.283 574.162 125.708 574.162 126.223C574.162 126.682 574.329 127.044 574.662 127.309C574.995 127.575 575.516 127.796 576.224 127.973L578.006 128.411C579.079 128.671 579.878 129.07 580.404 129.606C580.93 130.137 581.193 130.822 581.193 131.661C581.193 132.348 580.995 132.963 580.599 133.504C580.209 134.046 579.662 134.473 578.959 134.786C578.256 135.098 577.438 135.254 576.506 135.254C575.282 135.254 574.269 134.989 573.467 134.458C572.665 133.926 572.157 133.15 571.943 132.129L573.693 131.692C573.86 132.338 574.175 132.822 574.639 133.145C575.107 133.468 575.719 133.629 576.474 133.629C577.334 133.629 578.016 133.447 578.521 133.083C579.032 132.713 579.287 132.27 579.287 131.754C579.287 131.338 579.141 130.989 578.849 130.708C578.558 130.421 578.11 130.208 577.506 130.067L575.506 129.598C574.407 129.338 573.599 128.934 573.084 128.387C572.573 127.835 572.318 127.145 572.318 126.317C572.318 125.64 572.508 125.041 572.889 124.52C573.274 123.999 573.797 123.59 574.459 123.294C575.126 122.997 575.881 122.848 576.724 122.848C577.912 122.848 578.844 123.109 579.521 123.629C580.204 124.15 580.688 124.838 580.974 125.692ZM585.312 135.129C584.927 135.129 584.596 134.991 584.32 134.715C584.044 134.439 583.906 134.109 583.906 133.723C583.906 133.338 584.044 133.007 584.32 132.731C584.596 132.455 584.927 132.317 585.312 132.317C585.698 132.317 586.029 132.455 586.305 132.731C586.581 133.007 586.719 133.338 586.719 133.723C586.719 133.978 586.654 134.213 586.523 134.426C586.398 134.64 586.229 134.812 586.016 134.942C585.807 135.067 585.573 135.129 585.312 135.129Z" fill="#1E2D41"/>
<path d="M478.289 91.0045V107.004H475.367L468.406 96.9342H468.289V107.004H464.906V91.0045H467.875L474.781 101.067H474.922V91.0045H478.289ZM486.49 107.239C485.256 107.239 484.193 106.989 483.303 106.489C482.417 105.984 481.735 105.27 481.256 104.348C480.777 103.421 480.537 102.325 480.537 101.059C480.537 99.8248 480.777 98.7415 481.256 97.8092C481.735 96.8769 482.409 96.1503 483.279 95.6295C484.154 95.1087 485.18 94.8482 486.357 94.8482C487.149 94.8482 487.886 94.9758 488.568 95.2311C489.256 95.4811 489.855 95.8587 490.365 96.3639C490.881 96.8691 491.282 97.5045 491.568 98.2701C491.855 99.0305 491.998 99.9212 491.998 100.942V101.856H481.865V99.7936H488.865C488.865 99.3144 488.761 98.8899 488.553 98.5201C488.344 98.1503 488.055 97.8613 487.685 97.6529C487.321 97.4394 486.896 97.3326 486.412 97.3326C485.907 97.3326 485.459 97.4498 485.068 97.6842C484.683 97.9133 484.381 98.2232 484.162 98.6139C483.943 98.9993 483.831 99.429 483.826 99.9029V101.864C483.826 102.458 483.935 102.971 484.154 103.403C484.378 103.835 484.693 104.169 485.1 104.403C485.506 104.637 485.988 104.754 486.545 104.754C486.915 104.754 487.253 104.702 487.56 104.598C487.868 104.494 488.131 104.338 488.35 104.129C488.568 103.921 488.735 103.666 488.85 103.364L491.928 103.567C491.771 104.307 491.451 104.952 490.967 105.504C490.488 106.051 489.868 106.478 489.107 106.786C488.352 107.088 487.48 107.239 486.49 107.239ZM499.592 107.239C498.378 107.239 497.329 106.981 496.443 106.465C495.563 105.945 494.883 105.221 494.404 104.294C493.925 103.361 493.685 102.281 493.685 101.051C493.685 99.8118 493.925 98.7285 494.404 97.8014C494.883 96.8691 495.563 96.1451 496.443 95.6295C497.329 95.1087 498.378 94.8482 499.592 94.8482C500.805 94.8482 501.852 95.1087 502.732 95.6295C503.618 96.1451 504.3 96.8691 504.779 97.8014C505.258 98.7285 505.498 99.8118 505.498 101.051C505.498 102.281 505.258 103.361 504.779 104.294C504.3 105.221 503.618 105.945 502.732 106.465C501.852 106.981 500.805 107.239 499.592 107.239ZM499.607 104.661C500.159 104.661 500.62 104.504 500.99 104.192C501.36 103.874 501.639 103.442 501.826 102.895C502.019 102.348 502.115 101.726 502.115 101.028C502.115 100.33 502.019 99.7076 501.826 99.1607C501.639 98.6139 501.36 98.1816 500.99 97.8639C500.62 97.5462 500.159 97.3873 499.607 97.3873C499.05 97.3873 498.581 97.5462 498.201 97.8639C497.826 98.1816 497.542 98.6139 497.35 99.1607C497.162 99.7076 497.068 100.33 497.068 101.028C497.068 101.726 497.162 102.348 497.35 102.895C497.542 103.442 497.826 103.874 498.201 104.192C498.581 104.504 499.05 104.661 499.607 104.661ZM507.725 107.004V91.0045H518.318V93.7936H511.107V97.6061H517.615V100.395H511.107V107.004H507.725ZM525.072 107.239C523.859 107.239 522.809 106.981 521.924 106.465C521.044 105.945 520.364 105.221 519.885 104.294C519.406 103.361 519.166 102.281 519.166 101.051C519.166 99.8118 519.406 98.7285 519.885 97.8014C520.364 96.8691 521.044 96.1451 521.924 95.6295C522.809 95.1087 523.859 94.8482 525.072 94.8482C526.286 94.8482 527.333 95.1087 528.213 95.6295C529.098 96.1451 529.78 96.8691 530.26 97.8014C530.739 98.7285 530.978 99.8118 530.978 101.051C530.978 102.281 530.739 103.361 530.26 104.294C529.78 105.221 529.098 105.945 528.213 106.465C527.333 106.981 526.286 107.239 525.072 107.239ZM525.088 104.661C525.64 104.661 526.101 104.504 526.471 104.192C526.84 103.874 527.119 103.442 527.307 102.895C527.499 102.348 527.596 101.726 527.596 101.028C527.596 100.33 527.499 99.7076 527.307 99.1607C527.119 98.6139 526.84 98.1816 526.471 97.8639C526.101 97.5462 525.64 97.3873 525.088 97.3873C524.53 97.3873 524.062 97.5462 523.682 97.8639C523.307 98.1816 523.023 98.6139 522.83 99.1607C522.642 99.7076 522.549 100.33 522.549 101.028C522.549 101.726 522.642 102.348 522.83 102.895C523.023 103.442 523.307 103.874 523.682 104.192C524.062 104.504 524.53 104.661 525.088 104.661ZM533.142 107.004V95.0045H536.369V97.0982H536.494C536.713 96.3535 537.08 95.791 537.596 95.4107C538.111 95.0253 538.705 94.8326 539.377 94.8326C539.544 94.8326 539.723 94.843 539.916 94.8639C540.109 94.8847 540.278 94.9133 540.424 94.9498V97.9029C540.267 97.8561 540.051 97.8144 539.775 97.7779C539.499 97.7415 539.247 97.7232 539.017 97.7232C538.528 97.7232 538.09 97.83 537.705 98.0436C537.325 98.2519 537.023 98.5436 536.799 98.9186C536.58 99.2936 536.471 99.7258 536.471 100.215V107.004H533.142ZM546.992 111.754C545.914 111.754 544.989 111.606 544.219 111.309C543.453 111.018 542.844 110.619 542.391 110.114C541.937 109.609 541.643 109.041 541.508 108.411L544.586 107.997C544.68 108.236 544.828 108.46 545.031 108.669C545.234 108.877 545.502 109.044 545.836 109.169C546.174 109.299 546.586 109.364 547.07 109.364C547.794 109.364 548.391 109.187 548.859 108.833C549.333 108.484 549.57 107.898 549.57 107.075V104.879H549.43C549.284 105.213 549.065 105.528 548.773 105.825C548.482 106.122 548.107 106.364 547.648 106.551C547.19 106.739 546.643 106.833 546.008 106.833C545.107 106.833 544.286 106.624 543.547 106.208C542.812 105.786 542.226 105.143 541.789 104.278C541.357 103.408 541.141 102.309 541.141 100.981C541.141 99.6217 541.362 98.4863 541.805 97.5748C542.247 96.6633 542.836 95.9811 543.57 95.5279C544.31 95.0748 545.12 94.8482 546 94.8482C546.672 94.8482 547.234 94.9628 547.687 95.192C548.141 95.416 548.505 95.6972 548.781 96.0357C549.062 96.3691 549.279 96.6972 549.43 97.0201H549.555V95.0045H552.859V107.122C552.859 108.143 552.609 108.997 552.109 109.684C551.609 110.372 550.917 110.887 550.031 111.231C549.151 111.58 548.138 111.754 546.992 111.754ZM547.062 104.333C547.599 104.333 548.052 104.2 548.422 103.934C548.797 103.663 549.083 103.278 549.281 102.778C549.484 102.273 549.586 101.669 549.586 100.965C549.586 100.262 549.487 99.6529 549.289 99.1373C549.091 98.6165 548.805 98.2128 548.43 97.9264C548.055 97.6399 547.599 97.4967 547.062 97.4967C546.516 97.4967 546.055 97.6451 545.68 97.942C545.305 98.2337 545.021 98.6399 544.828 99.1607C544.635 99.6816 544.539 100.283 544.539 100.965C544.539 101.658 544.635 102.257 544.828 102.762C545.026 103.262 545.31 103.65 545.68 103.926C546.055 104.197 546.516 104.333 547.062 104.333ZM560.976 107.239C559.742 107.239 558.68 106.989 557.789 106.489C556.904 105.984 556.221 105.27 555.742 104.348C555.263 103.421 555.023 102.325 555.023 101.059C555.023 99.8248 555.263 98.7415 555.742 97.8092C556.221 96.8769 556.896 96.1503 557.766 95.6295C558.641 95.1087 559.667 94.8482 560.844 94.8482C561.635 94.8482 562.372 94.9758 563.055 95.2311C563.742 95.4811 564.341 95.8587 564.851 96.3639C565.367 96.8691 565.768 97.5045 566.055 98.2701C566.341 99.0305 566.484 99.9212 566.484 100.942V101.856H556.351V99.7936H563.351C563.351 99.3144 563.247 98.8899 563.039 98.5201C562.831 98.1503 562.542 97.8613 562.172 97.6529C561.807 97.4394 561.383 97.3326 560.898 97.3326C560.393 97.3326 559.945 97.4498 559.555 97.6842C559.169 97.9133 558.867 98.2232 558.648 98.6139C558.43 98.9993 558.318 99.429 558.312 99.9029V101.864C558.312 102.458 558.422 102.971 558.641 103.403C558.864 103.835 559.18 104.169 559.586 104.403C559.992 104.637 560.474 104.754 561.031 104.754C561.401 104.754 561.739 104.702 562.047 104.598C562.354 104.494 562.617 104.338 562.836 104.129C563.055 103.921 563.221 103.666 563.336 103.364L566.414 103.567C566.258 104.307 565.937 104.952 565.453 105.504C564.974 106.051 564.354 106.478 563.594 106.786C562.838 107.088 561.966 107.239 560.976 107.239Z" fill="#A44E37"/>
<path d="M108.003 140.026C93.2491 140.026 79.379 134.291 68.9475 123.879C58.516 113.467 52.7705 99.6229 52.7705 84.8962C52.7705 70.1696 58.516 56.3255 68.9475 45.9135C79.379 35.5015 93.2491 29.7668 108.003 29.7668C122.758 29.7668 136.628 35.5015 147.059 45.9135C157.491 56.3255 163.236 70.1696 163.236 84.8962C163.236 99.6229 157.491 113.467 147.059 123.879C136.628 134.291 122.758 140.026 108.003 140.026Z" fill="white"/>
<g filter="url(#filter0_d_2509_57)">
<path d="M107.999 30.7412C115.353 30.7412 122.486 32.1787 129.199 35.0121C135.684 37.7495 141.511 41.6709 146.512 46.6628C151.515 51.6569 155.442 57.4702 158.185 63.9433C161.023 70.6458 162.464 77.7634 162.464 85.1038C162.464 92.4442 161.023 99.5639 158.185 106.264C155.442 112.737 151.513 118.553 146.512 123.545C141.509 128.539 135.684 132.458 129.199 135.195C122.484 138.029 115.353 139.466 107.999 139.466C100.645 139.466 93.5116 138.029 86.7988 135.195C80.3135 132.458 74.4871 128.537 69.4858 123.545C64.4824 118.551 60.5558 112.737 57.8133 106.264C54.9745 99.5617 53.5343 92.4442 53.5343 85.1038C53.5343 77.7634 54.9745 70.6436 57.8133 63.9433C60.5558 57.4702 64.4846 51.6547 69.4858 46.6628C74.4893 41.6687 80.3135 37.7495 86.7988 35.0121C93.5138 32.1787 100.645 30.7412 107.999 30.7412ZM107.999 29.2119C77.072 29.2119 52 54.237 52 85.106C52 115.975 77.072 141 107.999 141C138.926 141 163.998 115.975 163.998 85.106C163.998 54.237 138.926 29.2119 107.999 29.2119Z" fill="#23211F"/>
</g>
<rect x="69.0181" y="88.5054" width="9.18175" height="9.41737" rx="1.75" fill="#40699E" stroke="#5C5C5C" stroke-width="0.5"/>
<rect x="69.0181" y="100.527" width="9.18175" height="9.41737" rx="1.75" fill="#BFA15F" stroke="#5C5C5C" stroke-width="0.5"/>
<rect x="80.6501" y="88.5054" width="9.18175" height="9.41737" rx="1.75" fill="#BFA15F" stroke="#5C5C5C" stroke-width="0.5"/>
<rect x="92.2822" y="76.4838" width="9.18175" height="9.41737" rx="1.75" fill="#BFA15F" stroke="#5C5C5C" stroke-width="0.5"/>
<rect x="103.914" y="64.4621" width="9.18175" height="9.41737" rx="1.75" fill="#BFA15F" stroke="#5C5C5C" stroke-width="0.5"/>
<rect x="115.546" y="76.4837" width="9.18175" height="9.41737" rx="1.75" fill="#BFA15F" stroke="#5C5C5C" stroke-width="0.5"/>
<rect x="138.81" y="100.527" width="9.18175" height="9.41737" rx="1.75" fill="#BFA15F" stroke="#5C5C5C" stroke-width="0.5"/>
<rect x="127.178" y="88.5054" width="9.18175" height="9.41737" rx="1.75" fill="#BFA15F" stroke="#5C5C5C" stroke-width="0.5"/>
<rect x="92.2822" y="52.4404" width="9.18175" height="9.41737" rx="1.75" fill="#BF6134" stroke="#5C5C5C" stroke-width="0.5"/>
<rect x="69.0181" y="76.4838" width="9.13796" height="9.51804" rx="1.75" fill="#40699E" stroke="#5C5C5C" stroke-width="0.5"/>
<rect x="80.6501" y="76.4837" width="9.13796" height="9.51804" rx="1.75" fill="#40699E" stroke="#5C5C5C" stroke-width="0.5"/>
<rect x="92.2822" y="64.4621" width="9.13796" height="9.51804" rx="1.75" fill="#40699E" stroke="#5C5C5C" stroke-width="0.5"/>
<rect x="80.6501" y="64.4621" width="9.13796" height="9.51804" rx="1.75" fill="#40699E" stroke="#5C5C5C" stroke-width="0.5"/>
<rect x="103.914" y="52.4404" width="9.18175" height="9.41737" rx="1.75" fill="#40699E" stroke="#5C5C5C" stroke-width="0.5"/>
<rect x="115.546" y="52.4405" width="9.18175" height="9.41737" rx="1.75" fill="#BF6134" stroke="#5C5C5C" stroke-width="0.5"/>
<rect x="138.81" y="88.5054" width="9.18175" height="9.41737" rx="1.75" fill="#40699E" stroke="#5C5C5C" stroke-width="0.5"/>
<rect x="103.914" y="40.4188" width="9.18175" height="9.41737" rx="1.75" fill="#BF6134" stroke="#5C5C5C" stroke-width="0.5"/>
<rect x="127.178" y="76.4838" width="9.13796" height="9.51804" rx="1.75" fill="#40699E" stroke="#5C5C5C" stroke-width="0.5"/>
<rect x="138.81" y="76.4838" width="9.13796" height="9.51804" rx="1.75" fill="#40699E" stroke="#5C5C5C" stroke-width="0.5"/>
<rect x="115.546" y="64.4621" width="9.13796" height="9.51804" rx="1.75" fill="#40699E" stroke="#5C5C5C" stroke-width="0.5"/>
<rect x="127.178" y="64.4621" width="9.13796" height="9.51804" rx="1.75" fill="#40699E" stroke="#5C5C5C" stroke-width="0.5"/>
<path d="M111.654 90.6113L96.9021 109.062L109.381 104.452L100.431 122.749L117.476 98.8377L105.992 102.621L111.654 90.6113Z" fill="#FFCF01"/>
<path d="M111.654 90.6113L96.9021 109.062L109.381 104.452L100.431 122.749L117.476 98.8377L105.992 102.621L111.654 90.6113Z" stroke="#231F20" stroke-width="0.5" stroke-linecap="square" stroke-linejoin="round"/>
</g>
<rect x="2.5" y="2.5" width="680" height="160" rx="27.5" stroke="url(#paint11_linear_2509_57)" stroke-width="5"/>
<defs>
<filter id="filter0_d_2509_57" x="50.7" y="26.9119" width="116.598" height="116.388" filterUnits="userSpaceOnUse" color-interpolation-filters="sRGB">
<feFlood flood-opacity="0" result="BackgroundImageFix"/>
<feColorMatrix in="SourceAlpha" type="matrix" values="0 0 0 0 0 0 0 0 0 0 0 0 0 0 0 0 0 0 127 0" result="hardAlpha"/>
<feOffset dx="1"/>
<feGaussianBlur stdDeviation="1.15"/>
<feComposite in2="hardAlpha" operator="out"/>
<feColorMatrix type="matrix" values="0 0 0 0 0.313726 0 0 0 0 0.607843 0 0 0 0 0.984314 0 0 0 0.25 0"/>
<feBlend mode="normal" in2="BackgroundImageFix" result="effect1_dropShadow_2509_57"/>
<feBlend mode="normal" in="SourceGraphic" in2="effect1_dropShadow_2509_57" result="shape"/>
</filter>
<linearGradient id="paint0_linear_2509_57" x1="342.5" y1="0" x2="342.5" y2="328.762" gradientUnits="userSpaceOnUse">
<stop stop-color="white"/>
<stop offset="1" stop-color="#CAC2B1"/>
</linearGradient>
<radialGradient id="paint1_radial_2509_57" cx="0" cy="0" r="1" gradientUnits="userSpaceOnUse" gradientTransform="translate(240 -5.72205e-05) rotate(90) scale(480 250.529)">
<stop/>
<stop offset="0.953125" stop-opacity="0"/>
</radialGradient>
<linearGradient id="paint2_linear_2509_57" x1="108.286" y1="35.2865" x2="108.286" y2="131.286" gradientUnits="userSpaceOnUse">
<stop stop-color="#1E2D41"/>
<stop offset="1" stop-color="white" stop-opacity="0"/>
</linearGradient>
<linearGradient id="paint3_linear_2509_57" x1="108.287" y1="3.28647" x2="108.287" y2="163.286" gradientUnits="userSpaceOnUse">
<stop stop-color="#1E2D41"/>
<stop offset="1" stop-color="white" stop-opacity="0"/>
</linearGradient>
<linearGradient id="paint4_linear_2509_57" x1="108.286" y1="-28.7135" x2="108.286" y2="195.286" gradientUnits="userSpaceOnUse">
<stop stop-color="#1E2D41"/>
<stop offset="1" stop-color="white" stop-opacity="0"/>
</linearGradient>
<linearGradient id="paint5_linear_2509_57" x1="108.287" y1="-60.7135" x2="108.287" y2="227.286" gradientUnits="userSpaceOnUse">
<stop stop-color="#1E2D41"/>
<stop offset="1" stop-color="white" stop-opacity="0"/>
</linearGradient>
<linearGradient id="paint6_linear_2509_57" x1="108.287" y1="-60.7135" x2="108.287" y2="227.286" gradientUnits="userSpaceOnUse">
<stop stop-color="#1E2D41"/>
<stop offset="1" stop-color="white" stop-opacity="0"/>
</linearGradient>
<linearGradient id="paint7_linear_2509_57" x1="108.286" y1="-92.7135" x2="108.286" y2="259.286" gradientUnits="userSpaceOnUse">
<stop stop-color="#1E2D41"/>
<stop offset="1" stop-color="white" stop-opacity="0"/>
</linearGradient>
<linearGradient id="paint8_linear_2509_57" x1="108.287" y1="-124.714" x2="108.287" y2="291.286" gradientUnits="userSpaceOnUse">
<stop stop-color="#1E2D41"/>
<stop offset="1" stop-color="white" stop-opacity="0"/>
</linearGradient>
<linearGradient id="paint9_linear_2509_57" x1="108.286" y1="-156.714" x2="108.286" y2="323.286" gradientUnits="userSpaceOnUse">
<stop stop-color="#1E2D41"/>
<stop offset="1" stop-color="white" stop-opacity="0"/>
</linearGradient>
<linearGradient id="paint10_linear_2509_57" x1="303.269" y1="54" x2="303.269" y2="92.5" gradientUnits="userSpaceOnUse">
<stop stop-color="#1E2D41"/>
<stop offset="1" stop-color="#3179D6"/>
</linearGradient>
<linearGradient id="paint11_linear_2509_57" x1="118" y1="103" x2="58.5" y2="-99.5" gradientUnits="userSpaceOnUse">
<stop stop-color="#1E2D41"/>
<stop offset="1" stop-color="#1B5BAE"/>
</linearGradient>
<clipPath id="clip0_2509_57">
<rect width="685" height="165" rx="30" fill="white"/>
</clipPath>
</defs>
</svg>
