<svg width="512" height="512" viewBox="0 0 512 512" fill="none" xmlns="http://www.w3.org/2000/svg">
<g clip-path="url(#clip0_2503_46)">
<path d="M256.025 506.736C188.445 506.736 124.915 480.572 77.1344 433.067C29.3541 385.562 3.03784 322.398 3.03784 255.207C3.03784 188.016 29.3541 124.853 77.1344 77.3477C124.915 29.8428 188.445 3.67818 256.025 3.67818C323.605 3.67818 387.135 29.8428 434.915 77.3477C482.696 124.853 509.012 188.016 509.012 255.207C509.012 322.398 482.696 385.562 434.915 433.067C387.135 480.572 323.605 506.736 256.025 506.736Z" fill="white"/>
<path d="M256.015 7.15681C289.7 7.15681 322.372 13.7154 353.12 26.6432C382.824 39.1324 409.512 57.024 432.419 79.7997C455.337 102.585 473.322 129.109 485.884 158.642C498.887 189.223 505.483 221.697 505.483 255.187C505.483 288.678 498.887 321.162 485.884 351.732C473.322 381.266 455.327 407.799 432.419 430.575C409.502 453.36 382.824 471.242 353.12 483.731C322.362 496.659 289.7 503.218 256.015 503.218C222.33 503.218 189.658 496.659 158.91 483.731C129.206 471.242 102.518 453.35 79.6108 430.575C56.693 407.789 38.7077 381.266 26.1461 351.732C13.1434 321.152 6.54674 288.678 6.54674 255.187C6.54674 221.697 13.1434 189.213 26.1461 158.642C38.7077 129.109 56.7031 102.575 79.6108 79.7997C102.518 57.024 129.206 39.1324 158.91 26.6432C189.668 13.7154 222.33 7.15681 256.015 7.15681ZM256.015 0.179581C114.358 0.179581 -0.480957 114.357 -0.480957 255.197C-0.480957 396.037 114.358 510.215 256.015 510.215C397.672 510.215 512.511 396.037 512.511 255.197C512.511 114.357 397.682 0.179581 256.015 0.179581Z" fill="#231F20"/>
<path d="M256.005 8.12362C289.69 8.12362 322.362 14.6822 353.11 27.61C382.814 40.0992 409.502 57.9908 432.409 80.7665C455.327 103.552 473.312 130.076 485.874 159.609C498.877 190.189 505.473 222.663 505.473 256.154C505.473 289.645 498.877 322.129 485.874 352.699C473.312 382.233 455.317 408.766 432.409 431.542C409.492 454.327 382.814 472.209 353.11 484.698C322.352 497.626 289.69 504.184 256.005 504.184C222.32 504.184 189.648 497.626 158.9 484.698C129.196 472.209 102.508 454.317 79.6007 431.542C56.683 408.756 38.6977 382.233 26.1361 352.699C13.1333 322.119 6.53673 289.645 6.53673 256.154C6.53673 222.663 13.1333 190.179 26.1361 159.609C38.6977 130.076 56.693 103.542 79.6007 80.7665C102.518 57.9809 129.196 40.0992 158.9 27.61C189.658 14.6822 222.32 8.12362 256.005 8.12362ZM256.005 1.14639C114.348 1.14639 -0.490967 115.324 -0.490967 256.164C-0.490967 397.004 114.348 511.182 256.005 511.182C397.662 511.182 512.501 397.004 512.501 256.164C512.501 115.324 397.662 1.14639 256.005 1.14639Z" fill="#231F20"/>
<path d="M48.6122 180.173L61.4616 193.891L78.5696 189.891L77.2905 194.117L68.2931 196.008C67.4988 196.203 66.7091 196.382 65.924 196.545C65.139 196.709 64.2282 196.901 63.1917 197.122L63.1361 197.306C63.9038 197.973 64.5736 198.577 65.1454 199.118C65.7173 199.659 66.2845 200.215 66.8471 200.786L73.3141 207.257L72.0907 211.3L59.8875 198.429L41.7717 202.777L43.0508 198.55L52.5591 196.462C53.4146 196.287 54.2948 196.085 55.1995 195.857C56.1256 195.669 57.1223 195.47 58.1894 195.258L58.245 195.074C57.4559 194.367 56.7235 193.694 56.0476 193.055C55.4024 192.425 54.7725 191.8 54.1579 191.179L47.3887 184.216L48.6122 180.173ZM38.6186 217.513L69.8519 221.51L68.6456 230.937C68.3491 233.254 67.7897 235.231 66.9673 236.868C66.1725 238.54 65.0477 239.767 63.5927 240.549C62.1336 241.362 60.2614 241.623 57.9761 241.331C55.7859 241.05 54.0396 240.327 52.7372 239.16C51.4624 238.029 50.5717 236.544 50.0651 234.705C49.5902 232.87 49.4989 230.809 49.7914 228.524L50.492 223.049L38.1129 221.465L38.6186 217.513ZM53.7296 223.463L53.0899 228.462C52.7406 231.192 53.0064 233.275 53.8873 234.71C54.7642 236.177 56.2977 237.051 58.4878 237.331C60.7415 237.62 62.3821 237.152 63.4097 235.929C64.469 234.709 65.1713 232.75 65.5166 230.052L66.1563 225.053L53.7296 223.463ZM35.2873 255.157L66.7543 254.005L66.8983 257.938L38.8371 258.965L39.4079 274.555L36.0021 274.68L35.2873 255.157ZM37.1238 286.56L70.1004 290.63L71.0063 295.051L42.2892 311.764L41.4411 307.626L57.5999 298.729C59.2148 297.843 60.8141 296.96 62.3977 296.08C64.019 295.225 65.675 294.379 67.3655 293.543L67.3269 293.355C65.4373 293.219 63.579 293.078 61.752 292.929C59.9564 292.775 58.1419 292.608 56.3085 292.428L37.943 290.557L37.1238 286.56ZM47.6462 290.087L50.7967 289.442L53.6975 303.596L50.5469 304.241L47.6462 290.087ZM49.0126 332.171L75.2515 322.037L71.5159 312.365L74.6503 311.154L83.574 334.259L80.4397 335.469L76.7042 325.798L50.4653 335.932L49.0126 332.171ZM103.532 379.155C104.142 379.896 104.518 380.706 104.66 381.583C104.803 382.461 104.719 383.317 104.411 384.151C104.103 384.985 103.578 385.707 102.837 386.317C102.121 386.907 101.311 387.283 100.409 387.446C99.5312 387.588 98.6753 387.505 97.8414 387.196C97.0074 386.888 96.2853 386.364 95.6752 385.622C95.0854 384.906 94.7093 384.096 94.5467 383.194C94.4045 382.316 94.4876 381.461 94.7958 380.627C95.1287 379.772 95.6534 379.05 96.3699 378.46C97.1111 377.85 97.9205 377.474 98.7982 377.332C99.6759 377.19 100.532 377.273 101.366 377.581C102.22 377.914 102.942 378.439 103.532 379.155ZM128.103 435.637L144.988 409.059L151.551 413.229C154.225 414.928 156.141 416.865 157.299 419.041C158.5 421.208 158.948 423.577 158.64 426.149C158.333 428.722 157.287 431.412 155.503 434.221C153.701 437.057 151.692 439.174 149.477 440.573C147.289 441.988 144.955 442.647 142.477 442.551C139.998 442.455 137.448 441.574 134.828 439.91L128.103 435.637ZM133.216 435.019L136.173 436.898C138.199 438.184 140.14 438.83 141.995 438.833C143.895 438.827 145.68 438.255 147.35 437.117C149.038 435.953 150.594 434.25 152.018 432.008C153.425 429.793 154.289 427.688 154.609 425.692C154.929 423.696 154.662 421.878 153.81 420.237C153.001 418.586 151.584 417.117 149.558 415.83L146.6 413.951L133.216 435.019ZM160.489 454.653L172.814 425.677L190.747 433.305L189.432 436.397L175.209 430.347L171.339 439.446L183.353 444.557L182.019 447.693L170.005 442.582L165.534 453.095L180.198 459.333L178.864 462.469L160.489 454.653ZM200.817 469.186L198.476 436.222L202.581 437.216L203.528 454.928C203.651 456.867 203.723 458.679 203.743 460.363C203.802 462.024 203.893 463.824 204.016 465.763L204.203 465.808C205.23 464.147 206.135 462.588 206.915 461.131C207.735 459.651 208.627 458.072 209.593 456.396L218.49 441.067L222.455 442.027L205.342 470.282L200.817 469.186ZM229.899 474.876L232.228 443.475L251.663 444.916L251.415 448.267L236.001 447.124L235.27 456.985L248.29 457.95L248.038 461.349L235.017 460.383L234.173 471.776L250.065 472.955L249.813 476.353L229.899 474.876ZM266.988 476.189L264.271 444.818L268.192 444.479L270.616 472.454L286.157 471.108L286.451 474.503L266.988 476.189ZM310.825 470.172C308.531 470.759 306.338 470.644 304.246 469.825C302.153 469.006 300.31 467.546 298.715 465.444C297.112 463.31 295.882 460.57 295.025 457.222C294.183 453.936 293.961 451.003 294.358 448.424C294.747 445.814 295.667 443.663 297.116 441.971C298.566 440.279 300.438 439.139 302.732 438.552C305.026 437.964 307.215 438.065 309.299 438.852C311.384 439.64 313.224 441.085 314.819 443.187C316.406 445.258 317.62 447.937 318.461 451.223C319.318 454.571 319.556 457.566 319.175 460.207C318.786 462.817 317.871 464.983 316.429 466.707C314.987 468.43 313.119 469.585 310.825 470.172ZM309.956 466.778C311.506 466.381 312.728 465.54 313.621 464.254C314.537 462.93 315.067 461.258 315.211 459.239C315.378 457.182 315.129 454.851 314.462 452.247C313.803 449.674 312.915 447.556 311.795 445.893C310.707 444.223 309.451 443.058 308.027 442.399C306.626 441.7 305.151 441.549 303.601 441.946C302.051 442.343 300.814 443.188 299.889 444.482C298.988 445.736 298.446 447.361 298.264 449.357C298.112 451.345 298.365 453.625 299.024 456.198C299.69 458.802 300.575 460.97 301.68 462.703C302.807 464.396 304.075 465.608 305.483 466.337C306.915 467.028 308.406 467.174 309.956 466.778ZM336.279 461.803L323.608 432.977L332.309 429.152C334.447 428.212 336.43 427.673 338.256 427.534C340.099 427.353 341.73 427.685 343.15 428.529C344.599 429.36 345.787 430.83 346.714 432.939C347.603 434.961 347.883 436.83 347.554 438.548C347.242 440.223 346.428 441.752 345.113 443.134C343.785 444.486 342.067 445.626 339.958 446.553L334.904 448.775L339.927 460.2L336.279 461.803ZM333.591 445.787L338.205 443.759C340.724 442.651 342.372 441.35 343.148 439.855C343.953 438.348 343.912 436.583 343.023 434.562C342.109 432.482 340.863 431.317 339.285 431.067C337.694 430.788 335.653 431.195 333.163 432.29L328.549 434.318L333.591 445.787ZM369.468 445.768L352.248 419.406L368.563 408.748L370.401 411.561L357.461 420.014L362.869 428.292L373.799 421.152L375.663 424.005L364.732 431.145L370.98 440.71L384.322 431.994L386.186 434.847L369.468 445.768ZM398.6 425.292L377.302 402.099L384.514 395.476C386.094 394.026 387.679 392.961 389.271 392.281C390.864 391.557 392.447 391.363 394.017 391.702C395.59 391.996 397.113 392.944 398.584 394.546C400.013 396.102 400.839 397.711 401.063 399.374C401.31 401.015 401.059 402.658 400.309 404.302C399.562 405.901 398.398 407.425 396.819 408.875L392.541 412.804L401.535 422.597L398.6 425.292ZM390.334 410.4L394.187 406.861C396.002 405.194 397.045 403.563 397.317 401.966C397.591 400.325 397.035 398.75 395.65 397.241C394.265 395.733 392.808 395.116 391.279 395.39C389.751 395.62 388.08 396.568 386.265 398.234L382.412 401.773L390.334 410.4ZM395.471 408.614L396.376 404.916L414.616 410.584L411.257 413.669L395.471 408.614ZM428.098 352.344C428.567 351.507 429.185 350.862 429.951 350.411C430.717 349.96 431.545 349.727 432.434 349.712C433.323 349.696 434.186 349.923 435.023 350.392C435.833 350.846 436.477 351.464 436.956 352.246C437.407 353.012 437.64 353.839 437.656 354.728C437.671 355.617 437.444 356.481 436.975 357.318C436.521 358.128 435.904 358.772 435.122 359.251C434.356 359.702 433.528 359.935 432.639 359.951C431.722 359.95 430.859 359.723 430.049 359.27C429.212 358.801 428.567 358.183 428.116 357.417C427.665 356.65 427.432 355.823 427.417 354.934C427.417 354.017 427.644 353.154 428.098 352.344ZM473.303 300.688L445.675 295.404L443.728 305.587L440.427 304.956L445.081 280.629L448.381 281.26L446.433 291.444L474.06 296.728L473.303 300.688ZM478.303 262.687C478.246 265.054 477.54 267.134 476.185 268.926C474.83 270.718 472.924 272.097 470.468 273.062C467.98 274.027 465.009 274.468 461.554 274.385C458.163 274.304 455.28 273.723 452.905 272.642C450.498 271.56 448.677 270.092 447.441 268.237C446.205 266.383 445.616 264.273 445.672 261.905C445.729 259.538 446.419 257.458 447.742 255.665C449.066 253.872 450.955 252.493 453.411 251.528C455.835 250.561 458.742 250.119 462.134 250.2C465.589 250.283 468.535 250.866 470.974 251.949C473.381 253.03 475.218 254.499 476.486 256.354C477.754 258.209 478.36 260.32 478.303 262.687ZM474.8 262.603C474.838 261.004 474.36 259.6 473.365 258.392C472.338 257.151 470.873 256.187 468.968 255.501C467.033 254.783 464.722 254.391 462.035 254.327C459.379 254.263 457.1 254.545 455.196 255.171C453.294 255.766 451.832 256.659 450.811 257.851C449.759 259.01 449.214 260.39 449.175 261.989C449.137 263.589 449.615 265.009 450.61 266.249C451.573 267.456 452.99 268.418 454.862 269.135C456.734 269.82 458.998 270.195 461.653 270.258C464.34 270.323 466.667 270.059 468.634 269.465C470.569 268.84 472.079 267.948 473.163 266.789C474.216 265.598 474.762 264.203 474.8 262.603ZM476.395 226.423C476.724 228.768 476.367 230.935 475.321 232.924C474.276 234.913 472.62 236.584 470.355 237.936C468.057 239.293 465.197 240.212 461.775 240.693C458.416 241.166 455.477 241.062 452.958 240.382C450.407 239.706 448.371 238.555 446.849 236.927C445.328 235.299 444.402 233.312 444.073 230.967C443.743 228.622 444.085 226.458 445.098 224.473C446.112 222.489 447.752 220.82 450.017 219.468C452.252 218.119 455.048 217.209 458.407 216.737C461.829 216.256 464.832 216.351 467.414 217.022C469.965 217.697 472.017 218.847 473.57 220.47C475.124 222.094 476.065 224.078 476.395 226.423ZM472.925 226.911C472.702 225.327 472.001 224.019 470.822 222.989C469.607 221.932 468.005 221.221 466.014 220.854C463.988 220.46 461.644 220.451 458.982 220.825C456.352 221.195 454.148 221.844 452.372 222.772C450.592 223.669 449.295 224.788 448.482 226.13C447.633 227.445 447.32 228.895 447.542 230.479C447.765 232.064 448.468 233.387 449.651 234.448C450.799 235.483 452.354 236.201 454.317 236.604C456.276 236.975 458.57 236.975 461.2 236.606C463.862 236.231 466.115 235.592 467.959 234.686C469.767 233.753 471.111 232.627 471.992 231.308C472.837 229.961 473.148 228.495 472.925 226.911ZM470.477 198.808L440.401 208.132L439.235 204.372L466.056 196.058L461.437 181.157L464.692 180.148L470.477 198.808Z" fill="#231F20"/>
<path d="M112.461 141.549L83.3918 115.011L86.7089 111.378L112.632 135.043L125.779 120.641L128.925 123.513L112.461 141.549ZM134.83 117.636L122.68 77.9192L127.264 74.6337L160.97 98.9014L156.679 101.977L138.292 88.0637C136.457 86.6717 134.635 85.2959 132.824 83.9363C131.022 82.521 129.213 81.0614 127.397 79.5578L127.202 79.6976C128.01 81.9236 128.795 84.1171 129.556 86.2781C130.294 88.4066 131.028 90.563 131.757 92.7473L138.976 114.665L134.83 117.636ZM133.497 103.828L131.155 100.56L145.835 90.0395L148.176 93.307L133.497 103.828ZM181.736 89.542C179.976 90.3085 178.232 90.7624 176.505 90.9037C174.799 90.9923 173.156 90.726 171.576 90.1049C169.981 89.4471 168.472 88.337 167.051 86.7748C165.665 85.1966 164.414 83.1239 163.296 80.5567L153.523 58.1121L158.144 56.1L167.965 78.6546C169.051 81.1485 170.251 83.0035 171.566 84.2197C172.865 85.3992 174.226 86.0715 175.651 86.2366C177.112 86.3858 178.557 86.149 179.988 85.5262C181.455 84.8874 182.613 83.9905 183.462 82.8353C184.349 81.6641 184.802 80.2014 184.824 78.447C184.829 76.6559 184.289 74.5134 183.203 72.0196L173.382 49.4649L177.838 47.5247L187.611 69.9693C188.729 72.5365 189.375 74.8727 189.55 76.9779C189.762 79.0671 189.565 80.9197 188.96 82.5357C188.375 84.099 187.469 85.4751 186.242 86.664C184.999 87.8161 183.497 88.7755 181.736 89.542ZM205.382 79.5812L197.55 41.0084L202.959 39.9099L220.227 61.6283L225.555 68.8729L225.672 68.849C225.204 66.9442 224.661 64.9728 224.043 62.935C223.456 60.85 222.956 58.7884 222.542 56.75L218.483 36.7579L223.187 35.8028L231.019 74.3756L225.609 75.4741L208.342 53.7557L203.014 46.5111L202.897 46.5349C203.373 48.479 203.896 50.4543 204.467 52.4609C205.077 54.4595 205.585 56.4584 205.991 58.4576L210.086 78.6261L205.382 79.5812ZM259.739 73.7097C257.299 73.6899 255.043 73.2116 252.97 72.2747C250.898 71.3379 249.089 70.0032 247.543 68.2706C245.997 66.498 244.794 64.3482 243.935 61.8211C243.115 59.2544 242.719 56.3711 242.745 53.1712C242.779 48.9714 243.568 45.3576 245.113 42.3301C246.658 39.2625 248.757 36.9194 251.41 35.3009C254.063 33.6823 257.11 32.887 260.55 32.9149C262.909 32.934 265.005 33.451 266.837 34.4659C268.669 35.4408 270.14 36.5528 271.25 37.8018L268.405 40.9588C267.414 39.8308 266.261 38.9414 264.946 38.2907C263.631 37.64 262.154 37.308 260.514 37.2947C257.994 37.2743 255.789 37.9165 253.898 39.2212C252.048 40.4862 250.593 42.2945 249.534 44.646C248.475 46.9975 247.932 49.8132 247.906 53.093C247.879 56.4129 248.375 59.2771 249.396 61.6854C250.416 64.0938 251.841 65.9654 253.671 67.3003C255.54 68.6354 257.734 69.3133 260.254 69.3337C262.054 69.3483 263.677 68.9814 265.123 68.2331C266.57 67.4848 267.918 66.4157 269.17 65.0258L271.965 68.1086C270.43 69.8962 268.659 71.2819 266.651 72.2656C264.643 73.2494 262.339 73.7307 259.739 73.7097ZM282.221 74.1508L290.661 35.7064L295.584 36.7872L292.046 52.9034L308.103 56.4288L311.642 40.3126L316.564 41.3934L308.124 79.8378L303.201 78.757L307.177 60.6483L291.12 57.1229L287.144 75.2316L282.221 74.1508ZM321.159 84.0131L337.472 48.1926L348.283 53.1161C350.941 54.3263 353.095 55.7248 354.746 57.3117C356.449 58.8787 357.499 60.6754 357.895 62.7016C358.327 64.7444 357.946 67.0764 356.753 69.6974C355.609 72.2092 354.1 74.0272 352.225 75.1514C350.404 76.2558 348.301 76.7708 345.918 76.6963C343.551 76.5854 341.057 75.9331 338.436 74.7395L332.157 71.8799L325.691 86.0771L321.159 84.0131ZM333.847 68.1668L339.581 70.7778C342.712 72.2034 345.297 72.6555 347.336 72.1339C349.412 71.6288 351.022 70.1204 352.166 67.6086C353.343 65.024 353.391 62.8921 352.31 61.213C351.245 59.4974 349.165 57.9351 346.071 56.526L340.338 53.915L333.847 68.1668ZM352.538 98.7439L386.629 75.019L391.16 78.3775L378.375 117.894L374.133 114.75L381.75 92.9868C382.514 90.8145 383.266 88.6582 384.006 86.518C384.802 84.3695 385.637 82.2007 386.513 80.0117L386.32 79.8688C384.448 81.3194 382.6 82.7379 380.776 84.1242C378.976 85.4784 377.147 86.8367 375.291 88.1992L356.635 101.781L352.538 98.7439ZM365.275 93.2479L367.669 90.0183L382.178 100.773L379.784 104.002L365.275 93.2479ZM385.738 124.649L415.017 98.3445L421.513 105.575C424.159 108.521 425.813 111.499 426.473 114.508C427.19 117.52 426.93 120.523 425.694 123.516C424.457 126.509 422.292 129.395 419.197 132.176C416.073 134.982 412.942 136.854 409.804 137.791C406.693 138.757 403.662 138.765 400.711 137.814C397.759 136.863 394.987 134.944 392.394 132.058L385.738 124.649ZM392.101 125.627L395.028 128.885C397.033 131.117 399.151 132.547 401.384 133.177C403.673 133.809 406.014 133.722 408.408 132.915C410.832 132.082 413.279 130.556 415.748 128.337C418.188 126.145 419.937 123.902 420.995 121.607C422.052 119.313 422.344 117.034 421.87 114.771C421.453 112.511 420.242 110.266 418.237 108.034L415.31 104.776L392.101 125.627Z" fill="#231F20"/>
<rect x="133.729" y="281.496" width="30.1256" height="30.8807" rx="1.55" fill="#40699E" stroke="#5C5C5C" stroke-width="0.9"/>
<rect x="133.729" y="320.02" width="30.1256" height="30.8807" rx="1.55" fill="#BFA15F" stroke="#5C5C5C" stroke-width="0.9"/>
<rect x="171.005" y="281.496" width="30.1256" height="30.8807" rx="1.55" fill="#BFA15F" stroke="#5C5C5C" stroke-width="0.9"/>
<rect x="208.28" y="242.972" width="30.1256" height="30.8807" rx="1.55" fill="#BFA15F" stroke="#5C5C5C" stroke-width="0.9"/>
<rect x="245.555" y="204.448" width="30.1256" height="30.8807" rx="1.55" fill="#BFA15F" stroke="#5C5C5C" stroke-width="0.9"/>
<rect x="282.831" y="242.972" width="30.1256" height="30.8807" rx="1.55" fill="#BFA15F" stroke="#5C5C5C" stroke-width="0.9"/>
<rect x="357.381" y="320.02" width="30.1256" height="30.8807" rx="1.55" fill="#BFA15F" stroke="#5C5C5C" stroke-width="0.9"/>
<rect x="320.106" y="281.496" width="30.1256" height="30.8807" rx="1.55" fill="#BFA15F" stroke="#5C5C5C" stroke-width="0.9"/>
<rect x="208.28" y="165.924" width="30.1256" height="30.8807" rx="1.55" fill="#BF6134" stroke="#5C5C5C" stroke-width="0.9"/>
<rect x="133.729" y="242.972" width="29.9853" height="31.2033" rx="1.55" fill="#40699E" stroke="#5C5C5C" stroke-width="0.9"/>
<rect x="171.005" y="242.972" width="29.9853" height="31.2033" rx="1.55" fill="#40699E" stroke="#5C5C5C" stroke-width="0.9"/>
<rect x="208.28" y="204.448" width="29.9853" height="31.2033" rx="1.55" fill="#40699E" stroke="#5C5C5C" stroke-width="0.9"/>
<rect x="171.005" y="204.448" width="29.9853" height="31.2033" rx="1.55" fill="#40699E" stroke="#5C5C5C" stroke-width="0.9"/>
<rect x="245.555" y="165.924" width="30.1256" height="30.8807" rx="1.55" fill="#40699E" stroke="#5C5C5C" stroke-width="0.9"/>
<rect x="282.831" y="165.924" width="30.1256" height="30.8807" rx="1.55" fill="#BF6134" stroke="#5C5C5C" stroke-width="0.9"/>
<rect x="357.381" y="281.496" width="30.1256" height="30.8807" rx="1.55" fill="#40699E" stroke="#5C5C5C" stroke-width="0.9"/>
<rect x="245.555" y="127.4" width="30.1256" height="30.8807" rx="1.55" fill="#BF6134" stroke="#5C5C5C" stroke-width="0.9"/>
<rect x="320.106" y="242.972" width="29.9853" height="31.2033" rx="1.55" fill="#40699E" stroke="#5C5C5C" stroke-width="0.9"/>
<rect x="357.381" y="242.972" width="29.9853" height="31.2033" rx="1.55" fill="#40699E" stroke="#5C5C5C" stroke-width="0.9"/>
<rect x="282.831" y="204.448" width="29.9853" height="31.2033" rx="1.55" fill="#40699E" stroke="#5C5C5C" stroke-width="0.9"/>
<rect x="320.106" y="204.448" width="29.9853" height="31.2033" rx="1.55" fill="#40699E" stroke="#5C5C5C" stroke-width="0.9"/>
<path d="M270.71 288.595L223.437 347.723L263.426 332.948L234.746 391.583L289.366 314.957L252.565 327.08L270.71 288.595Z" fill="#FFCF01"/>
<path d="M270.71 288.595L223.437 347.723L263.426 332.948L234.746 391.583L289.366 314.957L252.565 327.08L270.71 288.595Z" stroke="#231F20" stroke-width="1.5" stroke-linecap="square" stroke-linejoin="round"/>
</g>
<defs>
<clipPath id="clip0_2503_46">
<rect width="512" height="512" fill="white"/>
</clipPath>
</defs>
</svg>
